<?xml version="1.0" encoding="UTF-8" standalone="no"?>
<!DOCTYPE svg PUBLIC "-//W3C//DTD SVG 1.1//EN"
 "http://www.w3.org/Graphics/SVG/1.1/DTD/svg11.dtd">
<!-- Generated by graphviz version 2.26.3 (20100126.1600)
 -->
<!-- Title: models_diagram Pages: 1 -->
<svg width="838pt" height="890pt"
 viewBox="0.00 0.00 838.00 890.00" xmlns="http://www.w3.org/2000/svg" xmlns:xlink="http://www.w3.org/1999/xlink">
<g id="graph1" class="graph" transform="scale(1 1) rotate(0) translate(4 886)">
<title>models_diagram</title>
<polygon fill="white" stroke="white" points="-4,5 -4,-886 835,-886 835,5 -4,5"/>
<!-- Medium -->
<g id="node1" class="node"><title>Medium</title>
<polyline fill="none" stroke="black" points="12,-244 168,-244 "/>
<path fill="none" stroke="black" d="M168,-244C174,-244 180,-250 180,-256"/>
<polyline fill="none" stroke="black" points="180,-256 180,-356 "/>
<path fill="none" stroke="black" d="M180,-356C180,-362 174,-368 168,-368"/>
<polyline fill="none" stroke="black" points="168,-368 12,-368 "/>
<path fill="none" stroke="black" d="M12,-368C6,-368 0,-362 0,-356"/>
<polyline fill="none" stroke="black" points="0,-356 0,-256 "/>
<path fill="none" stroke="black" d="M0,-256C0,-250 6,-244 12,-244"/>
<text text-anchor="middle" x="90" y="-351.4" font-family="Times Roman,serif" font-size="14.00">Medium</text>
<polyline fill="none" stroke="black" points="0,-342 180,-342 "/>
<text text-anchor="start" x="8" y="-325.4" font-family="Times Roman,serif" font-size="14.00">id :integer</text>
<text text-anchor="start" x="8" y="-307.4" font-family="Times Roman,serif" font-size="14.00">media_type :string</text>
<text text-anchor="start" x="8" y="-289.4" font-family="Times Roman,serif" font-size="14.00">content :string</text>
<text text-anchor="start" x="8" y="-271.4" font-family="Times Roman,serif" font-size="14.00">multimedia_id :integer</text>
<text text-anchor="start" x="8" y="-253.4" font-family="Times Roman,serif" font-size="14.00">multimedia_type :string</text>
</g>
<!-- Armedium -->
<g id="node6" class="node"><title>Armedium</title>
<polyline fill="none" stroke="black" points="19.5,-1 160.5,-1 "/>
<path fill="none" stroke="black" d="M160.5,-1C166.5,-1 172.5,-7 172.5,-13"/>
<polyline fill="none" stroke="black" points="172.5,-13 172.5,-185 "/>
<path fill="none" stroke="black" d="M172.5,-185C172.5,-191 166.5,-197 160.5,-197"/>
<polyline fill="none" stroke="black" points="160.5,-197 19.5,-197 "/>
<path fill="none" stroke="black" d="M19.5,-197C13.5,-197 7.5,-191 7.5,-185"/>
<polyline fill="none" stroke="black" points="7.5,-185 7.5,-13 "/>
<path fill="none" stroke="black" d="M7.5,-13C7.5,-7 13.5,-1 19.5,-1"/>
<text text-anchor="middle" x="90" y="-180.4" font-family="Times Roman,serif" font-size="14.00">Armedium</text>
<polyline fill="none" stroke="black" points="7.5,-171 172.5,-171 "/>
<text text-anchor="start" x="15.5" y="-154.4" font-family="Times Roman,serif" font-size="14.00">id :integer</text>
<text text-anchor="start" x="15.5" y="-136.4" font-family="Times Roman,serif" font-size="14.00">medium_id :integer</text>
<text text-anchor="start" x="15.5" y="-118.4" font-family="Times Roman,serif" font-size="14.00">arcone_start :float</text>
<text text-anchor="start" x="15.5" y="-100.4" font-family="Times Roman,serif" font-size="14.00">arcone_end :float</text>
<text text-anchor="start" x="15.5" y="-82.4" font-family="Times Roman,serif" font-size="14.00">sound_track :string</text>
<text text-anchor="start" x="15.5" y="-64.4" font-family="Times Roman,serif" font-size="14.00">rgb :string</text>
<text text-anchor="start" x="15.5" y="-46.4" font-family="Times Roman,serif" font-size="14.00">alpha :string</text>
<text text-anchor="start" x="15.5" y="-28.4" font-family="Times Roman,serif" font-size="14.00">created_at :datetime</text>
<text text-anchor="start" x="15.5" y="-10.4" font-family="Times Roman,serif" font-size="14.00">updated_at :datetime</text>
</g>
<!-- Medium&#45;&gt;Armedium -->
<g id="edge2" class="edge"><title>Medium&#45;&gt;Armedium</title>
<path fill="none" stroke="#a3c3c0" d="M90,-235.811C90,-226.556 90,-216.903 90,-207.195"/>
<ellipse fill="none" stroke="#a3c3c0" cx="90" cy="-239.893" rx="4" ry="4"/>
<polygon fill="#a3c3c0" stroke="#a3c3c0" points="90.0001,-207.073 94.5,-197.073 90,-202.073 90,-197.073 90,-197.073 90,-197.073 90,-202.073 85.5,-197.073 90.0001,-207.073 90.0001,-207.073"/>
</g>
<!-- Message -->
<g id="node2" class="node"><title>Message</title>
<polyline fill="none" stroke="black" points="210,-235 386,-235 "/>
<path fill="none" stroke="black" d="M386,-235C392,-235 398,-241 398,-247"/>
<polyline fill="none" stroke="black" points="398,-247 398,-365 "/>
<path fill="none" stroke="black" d="M398,-365C398,-371 392,-377 386,-377"/>
<polyline fill="none" stroke="black" points="386,-377 210,-377 "/>
<path fill="none" stroke="black" d="M210,-377C204,-377 198,-371 198,-365"/>
<polyline fill="none" stroke="black" points="198,-365 198,-247 "/>
<path fill="none" stroke="black" d="M198,-247C198,-241 204,-235 210,-235"/>
<text text-anchor="middle" x="298" y="-360.4" font-family="Times Roman,serif" font-size="14.00">Message</text>
<polyline fill="none" stroke="black" points="198,-351 398,-351 "/>
<text text-anchor="start" x="206" y="-334.4" font-family="Times Roman,serif" font-size="14.00">id :integer</text>
<text text-anchor="start" x="206" y="-316.4" font-family="Times Roman,serif" font-size="14.00">attraction_tour_id :integer</text>
<text text-anchor="start" x="206" y="-298.4" font-family="Times Roman,serif" font-size="14.00">order :integer</text>
<text text-anchor="start" x="206" y="-280.4" font-family="Times Roman,serif" font-size="14.00">content :string</text>
<text text-anchor="start" x="206" y="-262.4" font-family="Times Roman,serif" font-size="14.00">created_at :datetime</text>
<text text-anchor="start" x="206" y="-244.4" font-family="Times Roman,serif" font-size="14.00">updated_at :datetime</text>
</g>
<!-- Visitor -->
<g id="node3" class="node"><title>Visitor</title>
<polyline fill="none" stroke="black" points="716.5,-793 779.5,-793 "/>
<path fill="none" stroke="black" d="M779.5,-793C785.5,-793 791.5,-799 791.5,-805"/>
<polyline fill="none" stroke="black" points="791.5,-805 791.5,-851 "/>
<path fill="none" stroke="black" d="M791.5,-851C791.5,-857 785.5,-863 779.5,-863"/>
<polyline fill="none" stroke="black" points="779.5,-863 716.5,-863 "/>
<path fill="none" stroke="black" d="M716.5,-863C710.5,-863 704.5,-857 704.5,-851"/>
<polyline fill="none" stroke="black" points="704.5,-851 704.5,-805 "/>
<path fill="none" stroke="black" d="M704.5,-805C704.5,-799 710.5,-793 716.5,-793"/>
<text text-anchor="middle" x="748" y="-846.4" font-family="Times Roman,serif" font-size="14.00">Visitor</text>
<polyline fill="none" stroke="black" points="704.5,-837 791.5,-837 "/>
<text text-anchor="start" x="712.5" y="-820.4" font-family="Times Roman,serif" font-size="14.00">id :integer</text>
<text text-anchor="start" x="712.5" y="-802.4" font-family="Times Roman,serif" font-size="14.00">oid :string</text>
</g>
<!-- VenueVisitor -->
<g id="node11" class="node"><title>VenueVisitor</title>
<polyline fill="none" stroke="black" points="677.5,-604 818.5,-604 "/>
<path fill="none" stroke="black" d="M818.5,-604C824.5,-604 830.5,-610 830.5,-616"/>
<polyline fill="none" stroke="black" points="830.5,-616 830.5,-716 "/>
<path fill="none" stroke="black" d="M830.5,-716C830.5,-722 824.5,-728 818.5,-728"/>
<polyline fill="none" stroke="black" points="818.5,-728 677.5,-728 "/>
<path fill="none" stroke="black" d="M677.5,-728C671.5,-728 665.5,-722 665.5,-716"/>
<polyline fill="none" stroke="black" points="665.5,-716 665.5,-616 "/>
<path fill="none" stroke="black" d="M665.5,-616C665.5,-610 671.5,-604 677.5,-604"/>
<text text-anchor="middle" x="748" y="-711.4" font-family="Times Roman,serif" font-size="14.00">VenueVisitor</text>
<polyline fill="none" stroke="black" points="665.5,-702 830.5,-702 "/>
<text text-anchor="start" x="673.5" y="-685.4" font-family="Times Roman,serif" font-size="14.00">id :integer</text>
<text text-anchor="start" x="673.5" y="-667.4" font-family="Times Roman,serif" font-size="14.00">venue_id :integer</text>
<text text-anchor="start" x="673.5" y="-649.4" font-family="Times Roman,serif" font-size="14.00">visitor_id :integer</text>
<text text-anchor="start" x="673.5" y="-631.4" font-family="Times Roman,serif" font-size="14.00">created_at :datetime</text>
<text text-anchor="start" x="673.5" y="-613.4" font-family="Times Roman,serif" font-size="14.00">updated_at :datetime</text>
</g>
<!-- Visitor&#45;&gt;VenueVisitor -->
<g id="edge4" class="edge"><title>Visitor&#45;&gt;VenueVisitor</title>
<path fill="none" stroke="#4a8c6d" d="M748,-784.604C748,-770.399 748,-754.212 748,-738.46"/>
<ellipse fill="none" stroke="#4a8c6d" cx="748" cy="-788.848" rx="4" ry="4"/>
<polygon fill="#4a8c6d" stroke="#4a8c6d" points="748,-738.197 752.5,-728.197 748,-733.197 748,-728.197 748,-728.197 748,-728.197 748,-733.197 743.5,-728.197 748,-738.197 748,-738.197"/>
</g>
<!-- Asset -->
<g id="node4" class="node"><title>Asset</title>
<polyline fill="none" stroke="black" points="407.5,-613 520.5,-613 "/>
<path fill="none" stroke="black" d="M520.5,-613C526.5,-613 532.5,-619 532.5,-625"/>
<polyline fill="none" stroke="black" points="532.5,-625 532.5,-707 "/>
<path fill="none" stroke="black" d="M532.5,-707C532.5,-713 526.5,-719 520.5,-719"/>
<polyline fill="none" stroke="black" points="520.5,-719 407.5,-719 "/>
<path fill="none" stroke="black" d="M407.5,-719C401.5,-719 395.5,-713 395.5,-707"/>
<polyline fill="none" stroke="black" points="395.5,-707 395.5,-625 "/>
<path fill="none" stroke="black" d="M395.5,-625C395.5,-619 401.5,-613 407.5,-613"/>
<text text-anchor="middle" x="464" y="-702.4" font-family="Times Roman,serif" font-size="14.00">Asset</text>
<polyline fill="none" stroke="black" points="395.5,-693 532.5,-693 "/>
<text text-anchor="start" x="403.5" y="-676.4" font-family="Times Roman,serif" font-size="14.00">id :integer</text>
<text text-anchor="start" x="403.5" y="-658.4" font-family="Times Roman,serif" font-size="14.00">venue_id :integer</text>
<text text-anchor="start" x="403.5" y="-640.4" font-family="Times Roman,serif" font-size="14.00">assetType :string</text>
<text text-anchor="start" x="403.5" y="-622.4" font-family="Times Roman,serif" font-size="14.00">location :string</text>
</g>
<!-- Tour -->
<g id="node5" class="node"><title>Tour</title>
<polyline fill="none" stroke="black" points="250,-604 366,-604 "/>
<path fill="none" stroke="black" d="M366,-604C372,-604 378,-610 378,-616"/>
<polyline fill="none" stroke="black" points="378,-616 378,-716 "/>
<path fill="none" stroke="black" d="M378,-716C378,-722 372,-728 366,-728"/>
<polyline fill="none" stroke="black" points="366,-728 250,-728 "/>
<path fill="none" stroke="black" d="M250,-728C244,-728 238,-722 238,-716"/>
<polyline fill="none" stroke="black" points="238,-716 238,-616 "/>
<path fill="none" stroke="black" d="M238,-616C238,-610 244,-604 250,-604"/>
<text text-anchor="middle" x="308" y="-711.4" font-family="Times Roman,serif" font-size="14.00">Tour</text>
<polyline fill="none" stroke="black" points="238,-702 378,-702 "/>
<text text-anchor="start" x="246" y="-685.4" font-family="Times Roman,serif" font-size="14.00">id :integer</text>
<text text-anchor="start" x="246" y="-667.4" font-family="Times Roman,serif" font-size="14.00">title :string</text>
<text text-anchor="start" x="246" y="-649.4" font-family="Times Roman,serif" font-size="14.00">description :string</text>
<text text-anchor="start" x="246" y="-631.4" font-family="Times Roman,serif" font-size="14.00">venue_id :integer</text>
<text text-anchor="start" x="246" y="-613.4" font-family="Times Roman,serif" font-size="14.00">active :boolean</text>
</g>
<!-- Tour&#45;&gt;Medium -->
<g id="edge10" class="edge"><title>Tour&#45;&gt;Medium</title>
<path fill="none" stroke="#045f1c" d="M321.832,-595.789C328.514,-540.825 328.049,-465.341 289,-414 260.404,-376.403 230.741,-400.113 189,-378 186.136,-376.483 183.262,-374.891 180.389,-373.238"/>
<ellipse fill="none" stroke="#045f1c" cx="321.314" cy="-599.778" rx="4.00001" ry="4.00001"/>
<polygon fill="#045f1c" stroke="#045f1c" points="180.378,-373.232 174.089,-364.248 176.082,-370.673 171.786,-368.114 171.786,-368.114 171.786,-368.114 176.082,-370.673 169.483,-371.98 180.378,-373.232 180.378,-373.232"/>
</g>
<!-- AttractionTour -->
<g id="node9" class="node"><title>AttractionTour</title>
<polyline fill="none" stroke="black" points="129.5,-415 268.5,-415 "/>
<path fill="none" stroke="black" d="M268.5,-415C274.5,-415 280.5,-421 280.5,-427"/>
<polyline fill="none" stroke="black" points="280.5,-427 280.5,-545 "/>
<path fill="none" stroke="black" d="M280.5,-545C280.5,-551 274.5,-557 268.5,-557"/>
<polyline fill="none" stroke="black" points="268.5,-557 129.5,-557 "/>
<path fill="none" stroke="black" d="M129.5,-557C123.5,-557 117.5,-551 117.5,-545"/>
<polyline fill="none" stroke="black" points="117.5,-545 117.5,-427 "/>
<path fill="none" stroke="black" d="M117.5,-427C117.5,-421 123.5,-415 129.5,-415"/>
<text text-anchor="middle" x="199" y="-540.4" font-family="Times Roman,serif" font-size="14.00">AttractionTour</text>
<polyline fill="none" stroke="black" points="117.5,-531 280.5,-531 "/>
<text text-anchor="start" x="125.5" y="-514.4" font-family="Times Roman,serif" font-size="14.00">id :integer</text>
<text text-anchor="start" x="125.5" y="-496.4" font-family="Times Roman,serif" font-size="14.00">attraction_id :integer</text>
<text text-anchor="start" x="125.5" y="-478.4" font-family="Times Roman,serif" font-size="14.00">tour_id :integer</text>
<text text-anchor="start" x="125.5" y="-460.4" font-family="Times Roman,serif" font-size="14.00">radius :float</text>
<text text-anchor="start" x="125.5" y="-442.4" font-family="Times Roman,serif" font-size="14.00">description :string</text>
<text text-anchor="start" x="125.5" y="-424.4" font-family="Times Roman,serif" font-size="14.00">tour_order :integer</text>
</g>
<!-- Tour&#45;&gt;AttractionTour -->
<g id="edge6" class="edge"><title>Tour&#45;&gt;AttractionTour</title>
<path fill="none" stroke="#45a446" d="M266.02,-596.676C259.892,-586.556 253.541,-576.068 247.3,-565.762"/>
<ellipse fill="none" stroke="#45a446" cx="268.264" cy="-600.381" rx="4.00002" ry="4.00002"/>
<polygon fill="#45a446" stroke="#45a446" points="247.271,-565.713 245.94,-554.828 244.681,-561.436 242.091,-557.159 242.091,-557.159 242.091,-557.159 244.681,-561.436 238.241,-559.49 247.271,-565.713 247.271,-565.713"/>
</g>
<!-- TourVisitor -->
<g id="node12" class="node"><title>TourVisitor</title>
<polyline fill="none" stroke="black" points="517,-415 681,-415 "/>
<path fill="none" stroke="black" d="M681,-415C687,-415 693,-421 693,-427"/>
<polyline fill="none" stroke="black" points="693,-427 693,-545 "/>
<path fill="none" stroke="black" d="M693,-545C693,-551 687,-557 681,-557"/>
<polyline fill="none" stroke="black" points="681,-557 517,-557 "/>
<path fill="none" stroke="black" d="M517,-557C511,-557 505,-551 505,-545"/>
<polyline fill="none" stroke="black" points="505,-545 505,-427 "/>
<path fill="none" stroke="black" d="M505,-427C505,-421 511,-415 517,-415"/>
<text text-anchor="middle" x="599" y="-540.4" font-family="Times Roman,serif" font-size="14.00">TourVisitor</text>
<polyline fill="none" stroke="black" points="505,-531 693,-531 "/>
<text text-anchor="start" x="513" y="-514.4" font-family="Times Roman,serif" font-size="14.00">id :integer</text>
<text text-anchor="start" x="513" y="-496.4" font-family="Times Roman,serif" font-size="14.00">venue_visitor_id :integer</text>
<text text-anchor="start" x="513" y="-478.4" font-family="Times Roman,serif" font-size="14.00">created_at :datetime</text>
<text text-anchor="start" x="513" y="-460.4" font-family="Times Roman,serif" font-size="14.00">updated_at :datetime</text>
<text text-anchor="start" x="513" y="-442.4" font-family="Times Roman,serif" font-size="14.00">tour_id :integer</text>
<text text-anchor="start" x="513" y="-424.4" font-family="Times Roman,serif" font-size="14.00">progress :integer</text>
</g>
<!-- Tour&#45;&gt;TourVisitor -->
<g id="edge8" class="edge"><title>Tour&#45;&gt;TourVisitor</title>
<path fill="none" stroke="#81749c" d="M380.36,-598.753C382.571,-597.119 384.787,-595.531 387,-594 420.602,-570.758 459.886,-549.354 495.445,-531.837"/>
<ellipse fill="none" stroke="#81749c" cx="376.932" cy="-601.362" rx="4.00002" ry="4.00002"/>
<polygon fill="#81749c" stroke="#81749c" points="495.894,-531.618 506.855,-531.28 500.388,-529.427 504.882,-527.235 504.882,-527.235 504.882,-527.235 500.388,-529.427 502.91,-523.19 495.894,-531.618 495.894,-531.618"/>
</g>
<!-- Progress -->
<g id="node7" class="node"><title>Progress</title>
<polyline fill="none" stroke="black" points="562,-631 636,-631 "/>
<path fill="none" stroke="black" d="M636,-631C642,-631 648,-637 648,-643"/>
<polyline fill="none" stroke="black" points="648,-643 648,-689 "/>
<path fill="none" stroke="black" d="M648,-689C648,-695 642,-701 636,-701"/>
<polyline fill="none" stroke="black" points="636,-701 562,-701 "/>
<path fill="none" stroke="black" d="M562,-701C556,-701 550,-695 550,-689"/>
<polyline fill="none" stroke="black" points="550,-689 550,-643 "/>
<path fill="none" stroke="black" d="M550,-643C550,-637 556,-631 562,-631"/>
<text text-anchor="middle" x="599" y="-684.4" font-family="Times Roman,serif" font-size="14.00">Progress</text>
<polyline fill="none" stroke="black" points="550,-675 648,-675 "/>
<text text-anchor="start" x="558" y="-658.4" font-family="Times Roman,serif" font-size="14.00">id :integer</text>
<text text-anchor="start" x="558" y="-640.4" font-family="Times Roman,serif" font-size="14.00">level :string</text>
</g>
<!-- Progress&#45;&gt;TourVisitor -->
<g id="edge12" class="edge"><title>Progress&#45;&gt;TourVisitor</title>
<path fill="none" stroke="#31131b" d="M599,-622.717C599,-606.067 599,-586.466 599,-567.387"/>
<ellipse fill="none" stroke="#31131b" cx="599" cy="-626.867" rx="4" ry="4"/>
<polygon fill="#31131b" stroke="#31131b" points="599,-567.17 603.5,-557.17 599,-562.17 599,-557.17 599,-557.17 599,-557.17 599,-562.17 594.5,-557.17 599,-567.17 599,-567.17"/>
</g>
<!-- Attraction -->
<g id="node8" class="node"><title>Attraction</title>
<polyline fill="none" stroke="black" points="92,-595 208,-595 "/>
<path fill="none" stroke="black" d="M208,-595C214,-595 220,-601 220,-607"/>
<polyline fill="none" stroke="black" points="220,-607 220,-725 "/>
<path fill="none" stroke="black" d="M220,-725C220,-731 214,-737 208,-737"/>
<polyline fill="none" stroke="black" points="208,-737 92,-737 "/>
<path fill="none" stroke="black" d="M92,-737C86,-737 80,-731 80,-725"/>
<polyline fill="none" stroke="black" points="80,-725 80,-607 "/>
<path fill="none" stroke="black" d="M80,-607C80,-601 86,-595 92,-595"/>
<text text-anchor="middle" x="150" y="-720.4" font-family="Times Roman,serif" font-size="14.00">Attraction</text>
<polyline fill="none" stroke="black" points="80,-711 220,-711 "/>
<text text-anchor="start" x="88" y="-694.4" font-family="Times Roman,serif" font-size="14.00">id :integer</text>
<text text-anchor="start" x="88" y="-676.4" font-family="Times Roman,serif" font-size="14.00">venue_id :integer</text>
<text text-anchor="start" x="88" y="-658.4" font-family="Times Roman,serif" font-size="14.00">latitude :float</text>
<text text-anchor="start" x="88" y="-640.4" font-family="Times Roman,serif" font-size="14.00">longitude :float</text>
<text text-anchor="start" x="88" y="-622.4" font-family="Times Roman,serif" font-size="14.00">title :string</text>
<text text-anchor="start" x="88" y="-604.4" font-family="Times Roman,serif" font-size="14.00">description :string</text>
</g>
<!-- Attraction&#45;&gt;Medium -->
<g id="edge16" class="edge"><title>Attraction&#45;&gt;Medium</title>
<path fill="none" stroke="#c74ec3" d="M117.105,-587.124C113.946,-577.438 111.132,-567.577 109,-558 95.7329,-498.402 91.2753,-429.132 89.97,-378.317"/>
<ellipse fill="none" stroke="#c74ec3" cx="118.428" cy="-591.056" rx="4.00001" ry="4.00001"/>
<polygon fill="#c74ec3" stroke="#c74ec3" points="89.9649,-378.084 94.2421,-367.987 89.854,-373.086 89.7432,-368.087 89.7432,-368.087 89.7432,-368.087 89.854,-373.086 85.2443,-368.187 89.9649,-378.084 89.9649,-378.084"/>
</g>
<!-- Attraction&#45;&gt;AttractionTour -->
<g id="edge14" class="edge"><title>Attraction&#45;&gt;AttractionTour</title>
<path fill="none" stroke="#ae21a1" d="M171.515,-586.967C173.326,-580.314 175.158,-573.581 176.973,-566.915"/>
<ellipse fill="none" stroke="#ae21a1" cx="170.417" cy="-591" rx="4.00001" ry="4.00001"/>
<polygon fill="#ae21a1" stroke="#ae21a1" points="176.987,-566.862 183.956,-558.395 178.301,-562.038 179.614,-557.213 179.614,-557.213 179.614,-557.213 178.301,-562.038 175.272,-556.031 176.987,-566.862 176.987,-566.862"/>
</g>
<!-- AttractionTour&#45;&gt;Medium -->
<g id="edge18" class="edge"><title>AttractionTour&#45;&gt;Medium</title>
<path fill="none" stroke="#9a2609" d="M151.733,-407.944C145.505,-397.659 139.148,-387.163 132.997,-377.004"/>
<ellipse fill="none" stroke="#9a2609" cx="153.848" cy="-411.438" rx="4.00002" ry="4.00002"/>
<polygon fill="#9a2609" stroke="#9a2609" points="132.832,-376.732 131.502,-365.847 130.242,-372.455 127.652,-368.178 127.652,-368.178 127.652,-368.178 130.242,-372.455 123.803,-370.509 132.832,-376.732 132.832,-376.732"/>
</g>
<!-- AttractionTour&#45;&gt;Message -->
<g id="edge20" class="edge"><title>AttractionTour&#45;&gt;Message</title>
<path fill="none" stroke="#330b56" d="M241.983,-407.848C245.922,-400.688 249.916,-393.426 253.864,-386.247"/>
<ellipse fill="none" stroke="#330b56" cx="240.055" cy="-411.354" rx="4.00002" ry="4.00002"/>
<polygon fill="#330b56" stroke="#330b56" points="254.013,-385.976 262.776,-379.382 256.423,-381.595 258.833,-377.213 258.833,-377.213 258.833,-377.213 256.423,-381.595 254.89,-375.045 254.013,-385.976 254.013,-385.976"/>
</g>
<!-- Venue -->
<g id="node10" class="node"><title>Venue</title>
<polyline fill="none" stroke="black" points="171,-775 287,-775 "/>
<path fill="none" stroke="black" d="M287,-775C293,-775 299,-781 299,-787"/>
<polyline fill="none" stroke="black" points="299,-787 299,-869 "/>
<path fill="none" stroke="black" d="M299,-869C299,-875 293,-881 287,-881"/>
<polyline fill="none" stroke="black" points="287,-881 171,-881 "/>
<path fill="none" stroke="black" d="M171,-881C165,-881 159,-875 159,-869"/>
<polyline fill="none" stroke="black" points="159,-869 159,-787 "/>
<path fill="none" stroke="black" d="M159,-787C159,-781 165,-775 171,-775"/>
<text text-anchor="middle" x="229" y="-864.4" font-family="Times Roman,serif" font-size="14.00">Venue</text>
<polyline fill="none" stroke="black" points="159,-855 299,-855 "/>
<text text-anchor="start" x="167" y="-838.4" font-family="Times Roman,serif" font-size="14.00">id :integer</text>
<text text-anchor="start" x="167" y="-820.4" font-family="Times Roman,serif" font-size="14.00">name :string</text>
<text text-anchor="start" x="167" y="-802.4" font-family="Times Roman,serif" font-size="14.00">description :string</text>
<text text-anchor="start" x="167" y="-784.4" font-family="Times Roman,serif" font-size="14.00">active :boolean</text>
</g>
<!-- Venue&#45;&gt;Medium -->
<g id="edge28" class="edge"><title>Venue&#45;&gt;Medium</title>
<path fill="none" stroke="#af99d4" d="M151.379,-803.281C120.706,-789.275 88.6236,-768.321 71,-738 5.84595,-625.904 37.2501,-468.438 64.5829,-377.837"/>
<ellipse fill="none" stroke="#af99d4" cx="155.061" cy="-804.904" rx="4.00002" ry="4.00002"/>
<polygon fill="#af99d4" stroke="#af99d4" points="64.6059,-377.762 71.8502,-369.53 66.0778,-372.984 67.5496,-368.205 67.5496,-368.205 67.5496,-368.205 66.0778,-372.984 63.249,-366.881 64.6059,-377.762 64.6059,-377.762"/>
</g>
<!-- Venue&#45;&gt;Asset -->
<g id="edge26" class="edge"><title>Venue&#45;&gt;Asset</title>
<path fill="none" stroke="#b543b4" d="M306.25,-788.74C332.694,-774.079 361.917,-756.474 387,-738 392.125,-734.225 397.28,-730.147 402.36,-725.917"/>
<ellipse fill="none" stroke="#b543b4" cx="302.738" cy="-790.671" rx="4.00002" ry="4.00002"/>
<polygon fill="#b543b4" stroke="#b543b4" points="402.661,-725.66 413.189,-722.591 406.464,-722.414 410.268,-719.168 410.268,-719.168 410.268,-719.168 406.464,-722.414 407.346,-715.745 402.661,-725.66 402.661,-725.66"/>
</g>
<!-- Venue&#45;&gt;Tour -->
<g id="edge22" class="edge"><title>Venue&#45;&gt;Tour</title>
<path fill="none" stroke="#fdb648" d="M258.507,-767.491C263.301,-757.661 268.305,-747.4 273.21,-737.341"/>
<ellipse fill="none" stroke="#fdb648" cx="256.621" cy="-771.36" rx="4.00002" ry="4.00002"/>
<polygon fill="#fdb648" stroke="#fdb648" points="273.296,-737.166 281.724,-730.15 275.487,-732.671 277.679,-728.177 277.679,-728.177 277.679,-728.177 275.487,-732.671 273.634,-726.205 273.296,-737.166 273.296,-737.166"/>
</g>
<!-- Venue&#45;&gt;Attraction -->
<g id="edge24" class="edge"><title>Venue&#45;&gt;Attraction</title>
<path fill="none" stroke="#49b636" d="M199.488,-767.482C196.095,-760.523 192.596,-753.348 189.101,-746.182"/>
<ellipse fill="none" stroke="#49b636" cx="201.379" cy="-771.36" rx="4.00002" ry="4.00002"/>
<polygon fill="#49b636" stroke="#49b636" points="189.068,-746.114 188.729,-735.153 186.876,-741.62 184.685,-737.126 184.685,-737.126 184.685,-737.126 186.876,-741.62 180.64,-739.098 189.068,-746.114 189.068,-746.114"/>
</g>
<!-- VenueVisitor&#45;&gt;TourVisitor -->
<g id="edge30" class="edge"><title>VenueVisitor&#45;&gt;TourVisitor</title>
<path fill="none" stroke="#b65ede" d="M691.21,-597.395C682.438,-586.797 673.318,-575.78 664.376,-564.978"/>
<ellipse fill="none" stroke="#b65ede" cx="693.963" cy="-600.721" rx="4.00002" ry="4.00002"/>
<polygon fill="#b65ede" stroke="#b65ede" points="664.28,-564.862 661.37,-554.289 661.092,-561.011 657.904,-557.159 657.904,-557.159 657.904,-557.159 661.092,-561.011 654.437,-560.028 664.28,-564.862 664.28,-564.862"/>
</g>
<!-- TimeVisitor -->
<g id="node13" class="node"><title>TimeVisitor</title>
<polyline fill="none" stroke="black" points="524,-235 674,-235 "/>
<path fill="none" stroke="black" d="M674,-235C680,-235 686,-241 686,-247"/>
<polyline fill="none" stroke="black" points="686,-247 686,-365 "/>
<path fill="none" stroke="black" d="M686,-365C686,-371 680,-377 674,-377"/>
<polyline fill="none" stroke="black" points="674,-377 524,-377 "/>
<path fill="none" stroke="black" d="M524,-377C518,-377 512,-371 512,-365"/>
<polyline fill="none" stroke="black" points="512,-365 512,-247 "/>
<path fill="none" stroke="black" d="M512,-247C512,-241 518,-235 524,-235"/>
<text text-anchor="middle" x="599" y="-360.4" font-family="Times Roman,serif" font-size="14.00">TimeVisitor</text>
<polyline fill="none" stroke="black" points="512,-351 686,-351 "/>
<text text-anchor="start" x="520" y="-334.4" font-family="Times Roman,serif" font-size="14.00">id :integer</text>
<text text-anchor="start" x="520" y="-316.4" font-family="Times Roman,serif" font-size="14.00">tour_visitor_id :integer</text>
<text text-anchor="start" x="520" y="-298.4" font-family="Times Roman,serif" font-size="14.00">latitude :float</text>
<text text-anchor="start" x="520" y="-280.4" font-family="Times Roman,serif" font-size="14.00">longitude :float</text>
<text text-anchor="start" x="520" y="-262.4" font-family="Times Roman,serif" font-size="14.00">created_at :datetime</text>
<text text-anchor="start" x="520" y="-244.4" font-family="Times Roman,serif" font-size="14.00">updated_at :datetime</text>
</g>
<!-- TourVisitor&#45;&gt;TimeVisitor -->
<g id="edge32" class="edge"><title>TourVisitor&#45;&gt;TimeVisitor</title>
<path fill="none" stroke="#3d17f2" d="M599,-406.673C599,-400.237 599,-393.728 599,-387.279"/>
<ellipse fill="none" stroke="#3d17f2" cx="599" cy="-410.859" rx="4" ry="4"/>
<polygon fill="#3d17f2" stroke="#3d17f2" points="599,-387.213 603.5,-377.213 599,-382.213 599,-377.213 599,-377.213 599,-377.213 599,-382.213 594.5,-377.214 599,-387.213 599,-387.213"/>
</g>
</g>
</svg>
