<?xml version="1.0" encoding="UTF-8" standalone="no"?>
<!DOCTYPE svg PUBLIC "-//W3C//DTD SVG 1.1//EN"
 "http://www.w3.org/Graphics/SVG/1.1/DTD/svg11.dtd">
<!-- Generated by graphviz version 2.26.3 (20100126.1600)
 -->
<!-- Title: controllers_diagram Pages: 1 -->
<svg width="1052pt" height="970pt"
 viewBox="0.00 0.00 1052.00 970.09" xmlns="http://www.w3.org/2000/svg" xmlns:xlink="http://www.w3.org/1999/xlink">
<g id="graph1" class="graph" transform="scale(1 1) rotate(0) translate(4 966.091)">
<title>controllers_diagram</title>
<polygon fill="white" stroke="white" points="-4,5 -4,-966.091 1049,-966.091 1049,5 -4,5"/>
<!-- _diagram_info -->
<g id="node1" class="node"><title>_diagram_info</title>
<text text-anchor="start" x="801" y="-144.3" font-family="Times Roman,serif" font-size="13.00">Controllers diagram</text>
<text text-anchor="start" x="801" y="-127.3" font-family="Times Roman,serif" font-size="13.00">Date: Jul 17 2013 &#45; 14:04</text>
<text text-anchor="start" x="801" y="-110.3" font-family="Times Roman,serif" font-size="13.00">Migration version: 20130717072837</text>
<text text-anchor="start" x="801" y="-93.3" font-family="Times Roman,serif" font-size="13.00">Generated by RailRoady 1.1.0</text>
<text text-anchor="start" x="801" y="-76.3" font-family="Times Roman,serif" font-size="13.00">http://railroady.prestonlee.com</text>
</g>
<!-- TourVisitorsController -->
<g id="node2" class="node"><title>TourVisitorsController</title>
<polyline fill="none" stroke="black" points="15.3721,-492.422 157.372,-492.422 "/>
<path fill="none" stroke="black" d="M157.372,-492.422C163.372,-492.422 169.372,-498.422 169.372,-504.422"/>
<polyline fill="none" stroke="black" points="169.372,-504.422 169.372,-708.422 "/>
<path fill="none" stroke="black" d="M169.372,-708.422C169.372,-714.422 163.372,-720.422 157.372,-720.422"/>
<polyline fill="none" stroke="black" points="157.372,-720.422 15.3721,-720.422 "/>
<path fill="none" stroke="black" d="M15.3721,-720.422C9.37209,-720.422 3.37209,-714.422 3.37209,-708.422"/>
<polyline fill="none" stroke="black" points="3.37209,-708.422 3.37209,-504.422 "/>
<path fill="none" stroke="black" d="M3.37209,-504.422C3.37209,-498.422 9.37209,-492.422 15.3721,-492.422"/>
<text text-anchor="middle" x="86.3721" y="-703.822" font-family="Times Roman,serif" font-size="14.00">TourVisitorsController</text>
<polyline fill="none" stroke="black" points="3.37209,-694.422 169.372,-694.422 "/>
<text text-anchor="start" x="11.3721" y="-677.822" font-family="Times Roman,serif" font-size="14.00">create</text>
<text text-anchor="start" x="11.3721" y="-659.822" font-family="Times Roman,serif" font-size="14.00">destroy</text>
<text text-anchor="start" x="11.3721" y="-641.822" font-family="Times Roman,serif" font-size="14.00">edit</text>
<text text-anchor="start" x="11.3721" y="-623.822" font-family="Times Roman,serif" font-size="14.00">index</text>
<text text-anchor="start" x="11.3721" y="-605.822" font-family="Times Roman,serif" font-size="14.00">new</text>
<text text-anchor="start" x="11.3721" y="-587.822" font-family="Times Roman,serif" font-size="14.00">show</text>
<text text-anchor="start" x="11.3721" y="-569.822" font-family="Times Roman,serif" font-size="14.00">tour</text>
<text text-anchor="start" x="11.3721" y="-551.822" font-family="Times Roman,serif" font-size="14.00">update</text>
<polyline fill="none" stroke="black" points="3.37209,-542.422 169.372,-542.422 "/>
<polyline fill="none" stroke="black" points="3.37209,-518.422 169.372,-518.422 "/>
<text text-anchor="start" x="11.3721" y="-501.822" font-family="Times Roman,serif" font-size="14.00">_layout</text>
</g>
<!-- VenuesController -->
<g id="node3" class="node"><title>VenuesController</title>
<polyline fill="none" stroke="black" points="566.748,-765.561 677.748,-765.561 "/>
<path fill="none" stroke="black" d="M677.748,-765.561C683.748,-765.561 689.748,-771.561 689.748,-777.561"/>
<polyline fill="none" stroke="black" points="689.748,-777.561 689.748,-927.561 "/>
<path fill="none" stroke="black" d="M689.748,-927.561C689.748,-933.561 683.748,-939.561 677.748,-939.561"/>
<polyline fill="none" stroke="black" points="677.748,-939.561 566.748,-939.561 "/>
<path fill="none" stroke="black" d="M566.748,-939.561C560.748,-939.561 554.748,-933.561 554.748,-927.561"/>
<polyline fill="none" stroke="black" points="554.748,-927.561 554.748,-777.561 "/>
<path fill="none" stroke="black" d="M554.748,-777.561C554.748,-771.561 560.748,-765.561 566.748,-765.561"/>
<text text-anchor="middle" x="622.248" y="-922.961" font-family="Times Roman,serif" font-size="14.00">VenuesController</text>
<polyline fill="none" stroke="black" points="554.748,-913.561 689.748,-913.561 "/>
<text text-anchor="start" x="562.748" y="-896.961" font-family="Times Roman,serif" font-size="14.00">create</text>
<text text-anchor="start" x="562.748" y="-878.961" font-family="Times Roman,serif" font-size="14.00">destroy</text>
<text text-anchor="start" x="562.748" y="-860.961" font-family="Times Roman,serif" font-size="14.00">index</text>
<text text-anchor="start" x="562.748" y="-842.961" font-family="Times Roman,serif" font-size="14.00">show</text>
<text text-anchor="start" x="562.748" y="-824.961" font-family="Times Roman,serif" font-size="14.00">update</text>
<polyline fill="none" stroke="black" points="554.748,-815.561 689.748,-815.561 "/>
<polyline fill="none" stroke="black" points="554.748,-791.561 689.748,-791.561 "/>
<text text-anchor="start" x="562.748" y="-774.961" font-family="Times Roman,serif" font-size="14.00">_layout</text>
</g>
<!-- AttractionToursController -->
<g id="node4" class="node"><title>AttractionToursController</title>
<polyline fill="none" stroke="black" points="264.911,-48.761 431.911,-48.761 "/>
<path fill="none" stroke="black" d="M431.911,-48.761C437.911,-48.761 443.911,-54.761 443.911,-60.761"/>
<polyline fill="none" stroke="black" points="443.911,-60.761 443.911,-246.761 "/>
<path fill="none" stroke="black" d="M443.911,-246.761C443.911,-252.761 437.911,-258.761 431.911,-258.761"/>
<polyline fill="none" stroke="black" points="431.911,-258.761 264.911,-258.761 "/>
<path fill="none" stroke="black" d="M264.911,-258.761C258.911,-258.761 252.911,-252.761 252.911,-246.761"/>
<polyline fill="none" stroke="black" points="252.911,-246.761 252.911,-60.761 "/>
<path fill="none" stroke="black" d="M252.911,-60.761C252.911,-54.761 258.911,-48.761 264.911,-48.761"/>
<text text-anchor="middle" x="348.411" y="-242.161" font-family="Times Roman,serif" font-size="14.00">AttractionToursController</text>
<polyline fill="none" stroke="black" points="252.911,-232.761 443.911,-232.761 "/>
<text text-anchor="start" x="260.911" y="-216.161" font-family="Times Roman,serif" font-size="14.00">create</text>
<text text-anchor="start" x="260.911" y="-198.161" font-family="Times Roman,serif" font-size="14.00">destroy</text>
<text text-anchor="start" x="260.911" y="-180.161" font-family="Times Roman,serif" font-size="14.00">edit</text>
<text text-anchor="start" x="260.911" y="-162.161" font-family="Times Roman,serif" font-size="14.00">index</text>
<text text-anchor="start" x="260.911" y="-144.161" font-family="Times Roman,serif" font-size="14.00">new</text>
<text text-anchor="start" x="260.911" y="-126.161" font-family="Times Roman,serif" font-size="14.00">show</text>
<text text-anchor="start" x="260.911" y="-108.161" font-family="Times Roman,serif" font-size="14.00">update</text>
<polyline fill="none" stroke="black" points="252.911,-98.761 443.911,-98.761 "/>
<polyline fill="none" stroke="black" points="252.911,-74.761 443.911,-74.761 "/>
<text text-anchor="start" x="260.911" y="-58.161" font-family="Times Roman,serif" font-size="14.00">_layout</text>
</g>
<!-- TimeVisitorsController -->
<g id="node5" class="node"><title>TimeVisitorsController</title>
<polyline fill="none" stroke="black" points="280.49,-703.404 425.49,-703.404 "/>
<path fill="none" stroke="black" d="M425.49,-703.404C431.49,-703.404 437.49,-709.404 437.49,-715.404"/>
<polyline fill="none" stroke="black" points="437.49,-715.404 437.49,-901.404 "/>
<path fill="none" stroke="black" d="M437.49,-901.404C437.49,-907.404 431.49,-913.404 425.49,-913.404"/>
<polyline fill="none" stroke="black" points="425.49,-913.404 280.49,-913.404 "/>
<path fill="none" stroke="black" d="M280.49,-913.404C274.49,-913.404 268.49,-907.404 268.49,-901.404"/>
<polyline fill="none" stroke="black" points="268.49,-901.404 268.49,-715.404 "/>
<path fill="none" stroke="black" d="M268.49,-715.404C268.49,-709.404 274.49,-703.404 280.49,-703.404"/>
<text text-anchor="middle" x="352.99" y="-896.804" font-family="Times Roman,serif" font-size="14.00">TimeVisitorsController</text>
<polyline fill="none" stroke="black" points="268.49,-887.404 437.49,-887.404 "/>
<text text-anchor="start" x="276.49" y="-870.804" font-family="Times Roman,serif" font-size="14.00">create</text>
<text text-anchor="start" x="276.49" y="-852.804" font-family="Times Roman,serif" font-size="14.00">destroy</text>
<text text-anchor="start" x="276.49" y="-834.804" font-family="Times Roman,serif" font-size="14.00">edit</text>
<text text-anchor="start" x="276.49" y="-816.804" font-family="Times Roman,serif" font-size="14.00">index</text>
<text text-anchor="start" x="276.49" y="-798.804" font-family="Times Roman,serif" font-size="14.00">new</text>
<text text-anchor="start" x="276.49" y="-780.804" font-family="Times Roman,serif" font-size="14.00">show</text>
<text text-anchor="start" x="276.49" y="-762.804" font-family="Times Roman,serif" font-size="14.00">update</text>
<polyline fill="none" stroke="black" points="268.49,-753.404 437.49,-753.404 "/>
<polyline fill="none" stroke="black" points="268.49,-729.404 437.49,-729.404 "/>
<text text-anchor="start" x="276.49" y="-712.804" font-family="Times Roman,serif" font-size="14.00">_layout</text>
</g>
<!-- ApplicationController -->
<g id="node6" class="node"><title>ApplicationController</title>
<polyline fill="none" stroke="black" points="248.167,-430.168 453.167,-430.168 "/>
<path fill="none" stroke="black" d="M453.167,-430.168C459.167,-430.168 465.167,-436.168 465.167,-442.168"/>
<polyline fill="none" stroke="black" points="465.167,-442.168 465.167,-520.168 "/>
<path fill="none" stroke="black" d="M465.167,-520.168C465.167,-526.168 459.167,-532.168 453.167,-532.168"/>
<polyline fill="none" stroke="black" points="453.167,-532.168 248.167,-532.168 "/>
<path fill="none" stroke="black" d="M248.167,-532.168C242.167,-532.168 236.167,-526.168 236.167,-520.168"/>
<polyline fill="none" stroke="black" points="236.167,-520.168 236.167,-442.168 "/>
<path fill="none" stroke="black" d="M236.167,-442.168C236.167,-436.168 242.167,-430.168 248.167,-430.168"/>
<text text-anchor="middle" x="350.667" y="-515.568" font-family="Times Roman,serif" font-size="14.00">ApplicationController</text>
<polyline fill="none" stroke="black" points="236.167,-506.168 465.167,-506.168 "/>
<text text-anchor="start" x="244.167" y="-489.568" font-family="Times Roman,serif" font-size="14.00">_one_time_conditions_valid_8?</text>
<polyline fill="none" stroke="black" points="236.167,-480.168 465.167,-480.168 "/>
<polyline fill="none" stroke="black" points="236.167,-456.168 465.167,-456.168 "/>
<text text-anchor="start" x="244.167" y="-439.568" font-family="Times Roman,serif" font-size="14.00">_layout</text>
</g>
<!-- ApplicationController&#45;&gt;TourVisitorsController -->
<g id="edge2" class="edge"><title>ApplicationController&#45;&gt;TourVisitorsController</title>
<path fill="none" stroke="black" d="M242.787,-532.294C218.379,-543.861 192.828,-555.971 169.619,-566.97"/>
</g>
<!-- ApplicationController&#45;&gt;VenuesController -->
<g id="edge4" class="edge"><title>ApplicationController&#45;&gt;VenuesController</title>
<path fill="none" stroke="black" d="M388.144,-532.418C432.089,-592.513 505.641,-693.097 558.584,-765.498"/>
</g>
<!-- ApplicationController&#45;&gt;AttractionToursController -->
<g id="edge6" class="edge"><title>ApplicationController&#45;&gt;AttractionToursController</title>
<path fill="none" stroke="black" d="M350.315,-430.01C350.001,-384.418 349.531,-316.253 349.137,-259.044"/>
</g>
<!-- ApplicationController&#45;&gt;TimeVisitorsController -->
<g id="edge8" class="edge"><title>ApplicationController&#45;&gt;TimeVisitorsController</title>
<path fill="none" stroke="black" d="M351.03,-532.298C351.354,-577.866 351.837,-645.996 352.243,-703.176"/>
</g>
<!-- AttractionsController -->
<g id="node7" class="node"><title>AttractionsController</title>
<polyline fill="none" stroke="black" points="13,-750.591 150,-750.591 "/>
<path fill="none" stroke="black" d="M150,-750.591C156,-750.591 162,-756.591 162,-762.591"/>
<polyline fill="none" stroke="black" points="162,-762.591 162,-948.591 "/>
<path fill="none" stroke="black" d="M162,-948.591C162,-954.591 156,-960.591 150,-960.591"/>
<polyline fill="none" stroke="black" points="150,-960.591 13,-960.591 "/>
<path fill="none" stroke="black" d="M13,-960.591C7,-960.591 1,-954.591 1,-948.591"/>
<polyline fill="none" stroke="black" points="1,-948.591 1,-762.591 "/>
<path fill="none" stroke="black" d="M1,-762.591C1,-756.591 7,-750.591 13,-750.591"/>
<text text-anchor="middle" x="81.5" y="-943.991" font-family="Times Roman,serif" font-size="14.00">AttractionsController</text>
<polyline fill="none" stroke="black" points="1,-934.591 162,-934.591 "/>
<text text-anchor="start" x="9" y="-917.991" font-family="Times Roman,serif" font-size="14.00">create</text>
<text text-anchor="start" x="9" y="-899.991" font-family="Times Roman,serif" font-size="14.00">destroy</text>
<text text-anchor="start" x="9" y="-881.991" font-family="Times Roman,serif" font-size="14.00">edit</text>
<text text-anchor="start" x="9" y="-863.991" font-family="Times Roman,serif" font-size="14.00">index</text>
<text text-anchor="start" x="9" y="-845.991" font-family="Times Roman,serif" font-size="14.00">new</text>
<text text-anchor="start" x="9" y="-827.991" font-family="Times Roman,serif" font-size="14.00">show</text>
<text text-anchor="start" x="9" y="-809.991" font-family="Times Roman,serif" font-size="14.00">update</text>
<polyline fill="none" stroke="black" points="1,-800.591 162,-800.591 "/>
<polyline fill="none" stroke="black" points="1,-776.591 162,-776.591 "/>
<text text-anchor="start" x="9" y="-759.991" font-family="Times Roman,serif" font-size="14.00">_layout</text>
</g>
<!-- ApplicationController&#45;&gt;AttractionsController -->
<g id="edge10" class="edge"><title>ApplicationController&#45;&gt;AttractionsController</title>
<path fill="none" stroke="black" d="M313.805,-532.444C273.635,-588.323 208.263,-679.258 157.084,-750.45"/>
</g>
<!-- AssetsController -->
<g id="node8" class="node"><title>AssetsController</title>
<polyline fill="none" stroke="black" points="26.6465,-4.50849 131.646,-4.50849 "/>
<path fill="none" stroke="black" d="M131.646,-4.50849C137.646,-4.50849 143.646,-10.5085 143.646,-16.5085"/>
<polyline fill="none" stroke="black" points="143.646,-16.5085 143.646,-202.508 "/>
<path fill="none" stroke="black" d="M143.646,-202.508C143.646,-208.508 137.646,-214.508 131.646,-214.508"/>
<polyline fill="none" stroke="black" points="131.646,-214.508 26.6465,-214.508 "/>
<path fill="none" stroke="black" d="M26.6465,-214.508C20.6465,-214.508 14.6465,-208.508 14.6465,-202.508"/>
<polyline fill="none" stroke="black" points="14.6465,-202.508 14.6465,-16.5085 "/>
<path fill="none" stroke="black" d="M14.6465,-16.5085C14.6465,-10.5085 20.6465,-4.50849 26.6465,-4.50849"/>
<text text-anchor="middle" x="79.1465" y="-197.908" font-family="Times Roman,serif" font-size="14.00">AssetsController</text>
<polyline fill="none" stroke="black" points="14.6465,-188.508 143.646,-188.508 "/>
<text text-anchor="start" x="22.6465" y="-171.908" font-family="Times Roman,serif" font-size="14.00">create</text>
<text text-anchor="start" x="22.6465" y="-153.908" font-family="Times Roman,serif" font-size="14.00">destroy</text>
<text text-anchor="start" x="22.6465" y="-135.908" font-family="Times Roman,serif" font-size="14.00">edit</text>
<text text-anchor="start" x="22.6465" y="-117.908" font-family="Times Roman,serif" font-size="14.00">index</text>
<text text-anchor="start" x="22.6465" y="-99.9085" font-family="Times Roman,serif" font-size="14.00">new</text>
<text text-anchor="start" x="22.6465" y="-81.9085" font-family="Times Roman,serif" font-size="14.00">show</text>
<text text-anchor="start" x="22.6465" y="-63.9085" font-family="Times Roman,serif" font-size="14.00">update</text>
<polyline fill="none" stroke="black" points="14.6465,-54.5085 143.646,-54.5085 "/>
<polyline fill="none" stroke="black" points="14.6465,-30.5085 143.646,-30.5085 "/>
<text text-anchor="start" x="22.6465" y="-13.9085" font-family="Times Roman,serif" font-size="14.00">_layout</text>
</g>
<!-- ApplicationController&#45;&gt;AssetsController -->
<g id="edge12" class="edge"><title>ApplicationController&#45;&gt;AssetsController</title>
<path fill="none" stroke="black" d="M313.199,-429.88C269.555,-370.14 196.701,-270.417 143.851,-198.076"/>
</g>
<!-- VisitorsController -->
<g id="node9" class="node"><title>VisitorsController</title>
<polyline fill="none" stroke="black" points="560.535,-494.083 672.535,-494.083 "/>
<path fill="none" stroke="black" d="M672.535,-494.083C678.535,-494.083 684.535,-500.083 684.535,-506.083"/>
<polyline fill="none" stroke="black" points="684.535,-506.083 684.535,-692.083 "/>
<path fill="none" stroke="black" d="M684.535,-692.083C684.535,-698.083 678.535,-704.083 672.535,-704.083"/>
<polyline fill="none" stroke="black" points="672.535,-704.083 560.535,-704.083 "/>
<path fill="none" stroke="black" d="M560.535,-704.083C554.535,-704.083 548.535,-698.083 548.535,-692.083"/>
<polyline fill="none" stroke="black" points="548.535,-692.083 548.535,-506.083 "/>
<path fill="none" stroke="black" d="M548.535,-506.083C548.535,-500.083 554.535,-494.083 560.535,-494.083"/>
<text text-anchor="middle" x="616.535" y="-687.483" font-family="Times Roman,serif" font-size="14.00">VisitorsController</text>
<polyline fill="none" stroke="black" points="548.535,-678.083 684.535,-678.083 "/>
<text text-anchor="start" x="556.535" y="-661.483" font-family="Times Roman,serif" font-size="14.00">create</text>
<text text-anchor="start" x="556.535" y="-643.483" font-family="Times Roman,serif" font-size="14.00">destroy</text>
<text text-anchor="start" x="556.535" y="-625.483" font-family="Times Roman,serif" font-size="14.00">edit</text>
<text text-anchor="start" x="556.535" y="-607.483" font-family="Times Roman,serif" font-size="14.00">index</text>
<text text-anchor="start" x="556.535" y="-589.483" font-family="Times Roman,serif" font-size="14.00">new</text>
<text text-anchor="start" x="556.535" y="-571.483" font-family="Times Roman,serif" font-size="14.00">show</text>
<text text-anchor="start" x="556.535" y="-553.483" font-family="Times Roman,serif" font-size="14.00">update</text>
<polyline fill="none" stroke="black" points="548.535,-544.083 684.535,-544.083 "/>
<polyline fill="none" stroke="black" points="548.535,-520.083 684.535,-520.083 "/>
<text text-anchor="start" x="556.535" y="-503.483" font-family="Times Roman,serif" font-size="14.00">_layout</text>
</g>
<!-- ApplicationController&#45;&gt;VisitorsController -->
<g id="edge14" class="edge"><title>ApplicationController&#45;&gt;VisitorsController</title>
<path fill="none" stroke="black" d="M465.348,-532.03C493.597,-544.558 522.966,-557.584 548.223,-568.786"/>
</g>
<!-- ToursController -->
<g id="node10" class="node"><title>ToursController</title>
<polyline fill="none" stroke="black" points="35.8862,-249.006 133.886,-249.006 "/>
<path fill="none" stroke="black" d="M133.886,-249.006C139.886,-249.006 145.886,-255.006 145.886,-261.006"/>
<polyline fill="none" stroke="black" points="145.886,-261.006 145.886,-465.006 "/>
<path fill="none" stroke="black" d="M145.886,-465.006C145.886,-471.006 139.886,-477.006 133.886,-477.006"/>
<polyline fill="none" stroke="black" points="133.886,-477.006 35.8862,-477.006 "/>
<path fill="none" stroke="black" d="M35.8862,-477.006C29.8862,-477.006 23.8862,-471.006 23.8862,-465.006"/>
<polyline fill="none" stroke="black" points="23.8862,-465.006 23.8862,-261.006 "/>
<path fill="none" stroke="black" d="M23.8862,-261.006C23.8862,-255.006 29.8862,-249.006 35.8862,-249.006"/>
<text text-anchor="middle" x="84.8862" y="-460.406" font-family="Times Roman,serif" font-size="14.00">ToursController</text>
<polyline fill="none" stroke="black" points="23.8862,-451.006 145.886,-451.006 "/>
<text text-anchor="start" x="31.8862" y="-434.406" font-family="Times Roman,serif" font-size="14.00">activate</text>
<text text-anchor="start" x="31.8862" y="-416.406" font-family="Times Roman,serif" font-size="14.00">create</text>
<text text-anchor="start" x="31.8862" y="-398.406" font-family="Times Roman,serif" font-size="14.00">deactivate</text>
<text text-anchor="start" x="31.8862" y="-380.406" font-family="Times Roman,serif" font-size="14.00">destroy</text>
<text text-anchor="start" x="31.8862" y="-362.406" font-family="Times Roman,serif" font-size="14.00">get_venue</text>
<text text-anchor="start" x="31.8862" y="-344.406" font-family="Times Roman,serif" font-size="14.00">index</text>
<text text-anchor="start" x="31.8862" y="-326.406" font-family="Times Roman,serif" font-size="14.00">show</text>
<text text-anchor="start" x="31.8862" y="-308.406" font-family="Times Roman,serif" font-size="14.00">update</text>
<polyline fill="none" stroke="black" points="23.8862,-299.006 145.886,-299.006 "/>
<polyline fill="none" stroke="black" points="23.8862,-275.006 145.886,-275.006 "/>
<text text-anchor="start" x="31.8862" y="-258.406" font-family="Times Roman,serif" font-size="14.00">_layout</text>
</g>
<!-- ApplicationController&#45;&gt;ToursController -->
<g id="edge16" class="edge"><title>ApplicationController&#45;&gt;ToursController</title>
<path fill="none" stroke="black" d="M236.024,-430.199C205.115,-416.457 172.864,-402.119 146.13,-390.234"/>
</g>
<!-- MediaController -->
<g id="node11" class="node"><title>MediaController</title>
<polyline fill="none" stroke="black" points="563.91,-241.697 665.91,-241.697 "/>
<path fill="none" stroke="black" d="M665.91,-241.697C671.91,-241.697 677.91,-247.697 677.91,-253.697"/>
<polyline fill="none" stroke="black" points="677.91,-253.697 677.91,-457.697 "/>
<path fill="none" stroke="black" d="M677.91,-457.697C677.91,-463.697 671.91,-469.697 665.91,-469.697"/>
<polyline fill="none" stroke="black" points="665.91,-469.697 563.91,-469.697 "/>
<path fill="none" stroke="black" d="M563.91,-469.697C557.91,-469.697 551.91,-463.697 551.91,-457.697"/>
<polyline fill="none" stroke="black" points="551.91,-457.697 551.91,-253.697 "/>
<path fill="none" stroke="black" d="M551.91,-253.697C551.91,-247.697 557.91,-241.697 563.91,-241.697"/>
<text text-anchor="middle" x="614.91" y="-453.097" font-family="Times Roman,serif" font-size="14.00">MediaController</text>
<polyline fill="none" stroke="black" points="551.91,-443.697 677.91,-443.697 "/>
<text text-anchor="start" x="559.91" y="-427.097" font-family="Times Roman,serif" font-size="14.00">create</text>
<text text-anchor="start" x="559.91" y="-409.097" font-family="Times Roman,serif" font-size="14.00">destroy</text>
<text text-anchor="start" x="559.91" y="-391.097" font-family="Times Roman,serif" font-size="14.00">edit</text>
<text text-anchor="start" x="559.91" y="-373.097" font-family="Times Roman,serif" font-size="14.00">find_media</text>
<text text-anchor="start" x="559.91" y="-355.097" font-family="Times Roman,serif" font-size="14.00">index</text>
<text text-anchor="start" x="559.91" y="-337.097" font-family="Times Roman,serif" font-size="14.00">new</text>
<text text-anchor="start" x="559.91" y="-319.097" font-family="Times Roman,serif" font-size="14.00">show</text>
<text text-anchor="start" x="559.91" y="-301.097" font-family="Times Roman,serif" font-size="14.00">update</text>
<polyline fill="none" stroke="black" points="551.91,-291.697 677.91,-291.697 "/>
<polyline fill="none" stroke="black" points="551.91,-267.697 677.91,-267.697 "/>
<text text-anchor="start" x="559.91" y="-251.097" font-family="Times Roman,serif" font-size="14.00">_layout</text>
</g>
<!-- ApplicationController&#45;&gt;MediaController -->
<g id="edge18" class="edge"><title>ApplicationController&#45;&gt;MediaController</title>
<path fill="none" stroke="black" d="M458.145,-430.134C489.865,-415.072 523.55,-399.077 551.533,-385.79"/>
</g>
<!-- VenueVisitorsController -->
<g id="node12" class="node"><title>VenueVisitorsController</title>
<polyline fill="none" stroke="black" points="542.382,-1.5 697.382,-1.5 "/>
<path fill="none" stroke="black" d="M697.382,-1.5C703.382,-1.5 709.382,-7.5 709.382,-13.5"/>
<polyline fill="none" stroke="black" points="709.382,-13.5 709.382,-199.5 "/>
<path fill="none" stroke="black" d="M709.382,-199.5C709.382,-205.5 703.382,-211.5 697.382,-211.5"/>
<polyline fill="none" stroke="black" points="697.382,-211.5 542.382,-211.5 "/>
<path fill="none" stroke="black" d="M542.382,-211.5C536.382,-211.5 530.382,-205.5 530.382,-199.5"/>
<polyline fill="none" stroke="black" points="530.382,-199.5 530.382,-13.5 "/>
<path fill="none" stroke="black" d="M530.382,-13.5C530.382,-7.5 536.382,-1.5 542.382,-1.5"/>
<text text-anchor="middle" x="619.882" y="-194.9" font-family="Times Roman,serif" font-size="14.00">VenueVisitorsController</text>
<polyline fill="none" stroke="black" points="530.382,-185.5 709.382,-185.5 "/>
<text text-anchor="start" x="538.382" y="-168.9" font-family="Times Roman,serif" font-size="14.00">create</text>
<text text-anchor="start" x="538.382" y="-150.9" font-family="Times Roman,serif" font-size="14.00">destroy</text>
<text text-anchor="start" x="538.382" y="-132.9" font-family="Times Roman,serif" font-size="14.00">edit</text>
<text text-anchor="start" x="538.382" y="-114.9" font-family="Times Roman,serif" font-size="14.00">index</text>
<text text-anchor="start" x="538.382" y="-96.9" font-family="Times Roman,serif" font-size="14.00">new</text>
<text text-anchor="start" x="538.382" y="-78.9" font-family="Times Roman,serif" font-size="14.00">show</text>
<text text-anchor="start" x="538.382" y="-60.9" font-family="Times Roman,serif" font-size="14.00">update</text>
<polyline fill="none" stroke="black" points="530.382,-51.5 709.382,-51.5 "/>
<polyline fill="none" stroke="black" points="530.382,-27.5 709.382,-27.5 "/>
<text text-anchor="start" x="538.382" y="-10.9" font-family="Times Roman,serif" font-size="14.00">_layout</text>
</g>
<!-- ApplicationController&#45;&gt;VenueVisitorsController -->
<g id="edge20" class="edge"><title>ApplicationController&#45;&gt;VenueVisitorsController</title>
<path fill="none" stroke="black" d="M387.536,-429.857C427.714,-373.942 493.097,-282.948 544.285,-211.709"/>
</g>
</g>
</svg>
