<?xml version="1.0" encoding="UTF-8" standalone="no"?>
<!DOCTYPE svg PUBLIC "-//W3C//DTD SVG 1.1//EN"
 "http://www.w3.org/Graphics/SVG/1.1/DTD/svg11.dtd">
<!-- Generated by graphviz version 2.26.3 (20100126.1600)
 -->
<!-- Title: controllers_diagram Pages: 1 -->
<svg width="1100pt" height="1028pt"
 viewBox="0.00 0.00 1100.00 1027.94" xmlns="http://www.w3.org/2000/svg" xmlns:xlink="http://www.w3.org/1999/xlink">
<g id="graph1" class="graph" transform="scale(1 1) rotate(0) translate(4 1023.94)">
<title>controllers_diagram</title>
<polygon fill="white" stroke="white" points="-4,5 -4,-1023.94 1097,-1023.94 1097,5 -4,5"/>
<!-- _diagram_info -->
<g id="node1" class="node"><title>_diagram_info</title>
<text text-anchor="start" x="849" y="-78.3" font-family="Times Roman,serif" font-size="13.00">Controllers diagram</text>
<text text-anchor="start" x="849" y="-61.3" font-family="Times Roman,serif" font-size="13.00">Date: Jul 17 2013 &#45; 08:21</text>
<text text-anchor="start" x="849" y="-44.3" font-family="Times Roman,serif" font-size="13.00">Migration version: 20130717072837</text>
<text text-anchor="start" x="849" y="-27.3" font-family="Times Roman,serif" font-size="13.00">Generated by RailRoady 1.1.0</text>
<text text-anchor="start" x="849" y="-10.3" font-family="Times Roman,serif" font-size="13.00">http://railroady.prestonlee.com</text>
</g>
<!-- TourVisitorsController -->
<g id="node2" class="node"><title>TourVisitorsController</title>
<polyline fill="none" stroke="black" points="14.4913,-524.573 156.491,-524.573 "/>
<path fill="none" stroke="black" d="M156.491,-524.573C162.491,-524.573 168.491,-530.573 168.491,-536.573"/>
<polyline fill="none" stroke="black" points="168.491,-536.573 168.491,-740.573 "/>
<path fill="none" stroke="black" d="M168.491,-740.573C168.491,-746.573 162.491,-752.573 156.491,-752.573"/>
<polyline fill="none" stroke="black" points="156.491,-752.573 14.4913,-752.573 "/>
<path fill="none" stroke="black" d="M14.4913,-752.573C8.4913,-752.573 2.4913,-746.573 2.4913,-740.573"/>
<polyline fill="none" stroke="black" points="2.4913,-740.573 2.4913,-536.573 "/>
<path fill="none" stroke="black" d="M2.4913,-536.573C2.4913,-530.573 8.4913,-524.573 14.4913,-524.573"/>
<text text-anchor="middle" x="85.4913" y="-735.973" font-family="Times Roman,serif" font-size="14.00">TourVisitorsController</text>
<polyline fill="none" stroke="black" points="2.4913,-726.573 168.491,-726.573 "/>
<text text-anchor="start" x="10.4913" y="-709.973" font-family="Times Roman,serif" font-size="14.00">create</text>
<text text-anchor="start" x="10.4913" y="-691.973" font-family="Times Roman,serif" font-size="14.00">destroy</text>
<text text-anchor="start" x="10.4913" y="-673.973" font-family="Times Roman,serif" font-size="14.00">edit</text>
<text text-anchor="start" x="10.4913" y="-655.973" font-family="Times Roman,serif" font-size="14.00">index</text>
<text text-anchor="start" x="10.4913" y="-637.973" font-family="Times Roman,serif" font-size="14.00">new</text>
<text text-anchor="start" x="10.4913" y="-619.973" font-family="Times Roman,serif" font-size="14.00">show</text>
<text text-anchor="start" x="10.4913" y="-601.973" font-family="Times Roman,serif" font-size="14.00">tour</text>
<text text-anchor="start" x="10.4913" y="-583.973" font-family="Times Roman,serif" font-size="14.00">update</text>
<polyline fill="none" stroke="black" points="2.4913,-574.573 168.491,-574.573 "/>
<polyline fill="none" stroke="black" points="2.4913,-550.573 168.491,-550.573 "/>
<text text-anchor="start" x="10.4913" y="-533.973" font-family="Times Roman,serif" font-size="14.00">_layout</text>
</g>
<!-- VenuesController -->
<g id="node3" class="node"><title>VenuesController</title>
<polyline fill="none" stroke="black" points="607.807,-805.757 718.807,-805.757 "/>
<path fill="none" stroke="black" d="M718.807,-805.757C724.807,-805.757 730.807,-811.757 730.807,-817.757"/>
<polyline fill="none" stroke="black" points="730.807,-817.757 730.807,-1003.76 "/>
<path fill="none" stroke="black" d="M730.807,-1003.76C730.807,-1009.76 724.807,-1015.76 718.807,-1015.76"/>
<polyline fill="none" stroke="black" points="718.807,-1015.76 607.807,-1015.76 "/>
<path fill="none" stroke="black" d="M607.807,-1015.76C601.807,-1015.76 595.807,-1009.76 595.807,-1003.76"/>
<polyline fill="none" stroke="black" points="595.807,-1003.76 595.807,-817.757 "/>
<path fill="none" stroke="black" d="M595.807,-817.757C595.807,-811.757 601.807,-805.757 607.807,-805.757"/>
<text text-anchor="middle" x="663.307" y="-999.157" font-family="Times Roman,serif" font-size="14.00">VenuesController</text>
<polyline fill="none" stroke="black" points="595.807,-989.757 730.807,-989.757 "/>
<text text-anchor="start" x="603.807" y="-973.157" font-family="Times Roman,serif" font-size="14.00">create</text>
<text text-anchor="start" x="603.807" y="-955.157" font-family="Times Roman,serif" font-size="14.00">destroy</text>
<text text-anchor="start" x="603.807" y="-937.157" font-family="Times Roman,serif" font-size="14.00">edit</text>
<text text-anchor="start" x="603.807" y="-919.157" font-family="Times Roman,serif" font-size="14.00">index</text>
<text text-anchor="start" x="603.807" y="-901.157" font-family="Times Roman,serif" font-size="14.00">new</text>
<text text-anchor="start" x="603.807" y="-883.157" font-family="Times Roman,serif" font-size="14.00">show</text>
<text text-anchor="start" x="603.807" y="-865.157" font-family="Times Roman,serif" font-size="14.00">update</text>
<polyline fill="none" stroke="black" points="595.807,-855.757 730.807,-855.757 "/>
<polyline fill="none" stroke="black" points="595.807,-831.757 730.807,-831.757 "/>
<text text-anchor="start" x="603.807" y="-815.157" font-family="Times Roman,serif" font-size="14.00">_layout</text>
</g>
<!-- AttractionToursController -->
<g id="node4" class="node"><title>AttractionToursController</title>
<polyline fill="none" stroke="black" points="285.82,-53.1623 452.82,-53.1623 "/>
<path fill="none" stroke="black" d="M452.82,-53.1623C458.82,-53.1623 464.82,-59.1623 464.82,-65.1623"/>
<polyline fill="none" stroke="black" points="464.82,-65.1623 464.82,-251.162 "/>
<path fill="none" stroke="black" d="M464.82,-251.162C464.82,-257.162 458.82,-263.162 452.82,-263.162"/>
<polyline fill="none" stroke="black" points="452.82,-263.162 285.82,-263.162 "/>
<path fill="none" stroke="black" d="M285.82,-263.162C279.82,-263.162 273.82,-257.162 273.82,-251.162"/>
<polyline fill="none" stroke="black" points="273.82,-251.162 273.82,-65.1623 "/>
<path fill="none" stroke="black" d="M273.82,-65.1623C273.82,-59.1623 279.82,-53.1623 285.82,-53.1623"/>
<text text-anchor="middle" x="369.32" y="-246.562" font-family="Times Roman,serif" font-size="14.00">AttractionToursController</text>
<polyline fill="none" stroke="black" points="273.82,-237.162 464.82,-237.162 "/>
<text text-anchor="start" x="281.82" y="-220.562" font-family="Times Roman,serif" font-size="14.00">create</text>
<text text-anchor="start" x="281.82" y="-202.562" font-family="Times Roman,serif" font-size="14.00">destroy</text>
<text text-anchor="start" x="281.82" y="-184.562" font-family="Times Roman,serif" font-size="14.00">edit</text>
<text text-anchor="start" x="281.82" y="-166.562" font-family="Times Roman,serif" font-size="14.00">index</text>
<text text-anchor="start" x="281.82" y="-148.562" font-family="Times Roman,serif" font-size="14.00">new</text>
<text text-anchor="start" x="281.82" y="-130.562" font-family="Times Roman,serif" font-size="14.00">show</text>
<text text-anchor="start" x="281.82" y="-112.562" font-family="Times Roman,serif" font-size="14.00">update</text>
<polyline fill="none" stroke="black" points="273.82,-103.162 464.82,-103.162 "/>
<polyline fill="none" stroke="black" points="273.82,-79.1623 464.82,-79.1623 "/>
<text text-anchor="start" x="281.82" y="-62.5623" font-family="Times Roman,serif" font-size="14.00">_layout</text>
</g>
<!-- TimeVisitorsController -->
<g id="node5" class="node"><title>TimeVisitorsController</title>
<polyline fill="none" stroke="black" points="300.862,-756.846 445.862,-756.846 "/>
<path fill="none" stroke="black" d="M445.862,-756.846C451.862,-756.846 457.862,-762.846 457.862,-768.846"/>
<polyline fill="none" stroke="black" points="457.862,-768.846 457.862,-954.846 "/>
<path fill="none" stroke="black" d="M457.862,-954.846C457.862,-960.846 451.862,-966.846 445.862,-966.846"/>
<polyline fill="none" stroke="black" points="445.862,-966.846 300.862,-966.846 "/>
<path fill="none" stroke="black" d="M300.862,-966.846C294.862,-966.846 288.862,-960.846 288.862,-954.846"/>
<polyline fill="none" stroke="black" points="288.862,-954.846 288.862,-768.846 "/>
<path fill="none" stroke="black" d="M288.862,-768.846C288.862,-762.846 294.862,-756.846 300.862,-756.846"/>
<text text-anchor="middle" x="373.362" y="-950.246" font-family="Times Roman,serif" font-size="14.00">TimeVisitorsController</text>
<polyline fill="none" stroke="black" points="288.862,-940.846 457.862,-940.846 "/>
<text text-anchor="start" x="296.862" y="-924.246" font-family="Times Roman,serif" font-size="14.00">create</text>
<text text-anchor="start" x="296.862" y="-906.246" font-family="Times Roman,serif" font-size="14.00">destroy</text>
<text text-anchor="start" x="296.862" y="-888.246" font-family="Times Roman,serif" font-size="14.00">edit</text>
<text text-anchor="start" x="296.862" y="-870.246" font-family="Times Roman,serif" font-size="14.00">index</text>
<text text-anchor="start" x="296.862" y="-852.246" font-family="Times Roman,serif" font-size="14.00">new</text>
<text text-anchor="start" x="296.862" y="-834.246" font-family="Times Roman,serif" font-size="14.00">show</text>
<text text-anchor="start" x="296.862" y="-816.246" font-family="Times Roman,serif" font-size="14.00">update</text>
<polyline fill="none" stroke="black" points="288.862,-806.846 457.862,-806.846 "/>
<polyline fill="none" stroke="black" points="288.862,-782.846 457.862,-782.846 "/>
<text text-anchor="start" x="296.862" y="-766.246" font-family="Times Roman,serif" font-size="14.00">_layout</text>
</g>
<!-- ApplicationController -->
<g id="node6" class="node"><title>ApplicationController</title>
<polyline fill="none" stroke="black" points="268.815,-459.073 473.815,-459.073 "/>
<path fill="none" stroke="black" d="M473.815,-459.073C479.815,-459.073 485.815,-465.073 485.815,-471.073"/>
<polyline fill="none" stroke="black" points="485.815,-471.073 485.815,-549.073 "/>
<path fill="none" stroke="black" d="M485.815,-549.073C485.815,-555.073 479.815,-561.073 473.815,-561.073"/>
<polyline fill="none" stroke="black" points="473.815,-561.073 268.815,-561.073 "/>
<path fill="none" stroke="black" d="M268.815,-561.073C262.815,-561.073 256.815,-555.073 256.815,-549.073"/>
<polyline fill="none" stroke="black" points="256.815,-549.073 256.815,-471.073 "/>
<path fill="none" stroke="black" d="M256.815,-471.073C256.815,-465.073 262.815,-459.073 268.815,-459.073"/>
<text text-anchor="middle" x="371.315" y="-544.473" font-family="Times Roman,serif" font-size="14.00">ApplicationController</text>
<polyline fill="none" stroke="black" points="256.815,-535.073 485.815,-535.073 "/>
<text text-anchor="start" x="264.815" y="-518.473" font-family="Times Roman,serif" font-size="14.00">_one_time_conditions_valid_8?</text>
<polyline fill="none" stroke="black" points="256.815,-509.073 485.815,-509.073 "/>
<polyline fill="none" stroke="black" points="256.815,-485.073 485.815,-485.073 "/>
<text text-anchor="start" x="264.815" y="-468.473" font-family="Times Roman,serif" font-size="14.00">_layout</text>
</g>
<!-- ApplicationController&#45;&gt;TourVisitorsController -->
<g id="edge2" class="edge"><title>ApplicationController&#45;&gt;TourVisitorsController</title>
<path fill="none" stroke="black" d="M257.528,-561.229C227.794,-574.597 196.303,-588.755 168.504,-601.253"/>
</g>
<!-- ApplicationController&#45;&gt;VenuesController -->
<g id="edge4" class="edge"><title>ApplicationController&#45;&gt;VenuesController</title>
<path fill="none" stroke="black" d="M408.592,-561.227C455.638,-625.786 537.432,-738.026 595.634,-817.894"/>
</g>
<!-- ApplicationController&#45;&gt;AttractionToursController -->
<g id="edge6" class="edge"><title>ApplicationController&#45;&gt;AttractionToursController</title>
<path fill="none" stroke="black" d="M371.025,-458.903C370.735,-407.909 370.283,-328.108 369.917,-263.521"/>
</g>
<!-- ApplicationController&#45;&gt;TimeVisitorsController -->
<g id="edge8" class="edge"><title>ApplicationController&#45;&gt;TimeVisitorsController</title>
<path fill="none" stroke="black" d="M371.612,-561.224C371.909,-612.197 372.374,-691.967 372.749,-756.529"/>
</g>
<!-- AttractionsController -->
<g id="node7" class="node"><title>AttractionsController</title>
<polyline fill="none" stroke="black" points="13,-808.439 150,-808.439 "/>
<path fill="none" stroke="black" d="M150,-808.439C156,-808.439 162,-814.439 162,-820.439"/>
<polyline fill="none" stroke="black" points="162,-820.439 162,-1006.44 "/>
<path fill="none" stroke="black" d="M162,-1006.44C162,-1012.44 156,-1018.44 150,-1018.44"/>
<polyline fill="none" stroke="black" points="150,-1018.44 13,-1018.44 "/>
<path fill="none" stroke="black" d="M13,-1018.44C7,-1018.44 1,-1012.44 1,-1006.44"/>
<polyline fill="none" stroke="black" points="1,-1006.44 1,-820.439 "/>
<path fill="none" stroke="black" d="M1,-820.439C1,-814.439 7,-808.439 13,-808.439"/>
<text text-anchor="middle" x="81.5" y="-1001.84" font-family="Times Roman,serif" font-size="14.00">AttractionsController</text>
<polyline fill="none" stroke="black" points="1,-992.439 162,-992.439 "/>
<text text-anchor="start" x="9" y="-975.839" font-family="Times Roman,serif" font-size="14.00">create</text>
<text text-anchor="start" x="9" y="-957.839" font-family="Times Roman,serif" font-size="14.00">destroy</text>
<text text-anchor="start" x="9" y="-939.839" font-family="Times Roman,serif" font-size="14.00">edit</text>
<text text-anchor="start" x="9" y="-921.839" font-family="Times Roman,serif" font-size="14.00">index</text>
<text text-anchor="start" x="9" y="-903.839" font-family="Times Roman,serif" font-size="14.00">new</text>
<text text-anchor="start" x="9" y="-885.839" font-family="Times Roman,serif" font-size="14.00">show</text>
<text text-anchor="start" x="9" y="-867.839" font-family="Times Roman,serif" font-size="14.00">update</text>
<polyline fill="none" stroke="black" points="1,-858.439 162,-858.439 "/>
<polyline fill="none" stroke="black" points="1,-834.439 162,-834.439 "/>
<text text-anchor="start" x="9" y="-817.839" font-family="Times Roman,serif" font-size="14.00">_layout</text>
</g>
<!-- ApplicationController&#45;&gt;AttractionsController -->
<g id="edge10" class="edge"><title>ApplicationController&#45;&gt;AttractionsController</title>
<path fill="none" stroke="black" d="M334.609,-561.16C290.21,-622.956 214.323,-728.575 157.194,-808.087"/>
</g>
<!-- AssetsController -->
<g id="node8" class="node"><title>AssetsController</title>
<polyline fill="none" stroke="black" points="26.8729,-4.16328 131.873,-4.16328 "/>
<path fill="none" stroke="black" d="M131.873,-4.16328C137.873,-4.16328 143.873,-10.1633 143.873,-16.1633"/>
<polyline fill="none" stroke="black" points="143.873,-16.1633 143.873,-202.163 "/>
<path fill="none" stroke="black" d="M143.873,-202.163C143.873,-208.163 137.873,-214.163 131.873,-214.163"/>
<polyline fill="none" stroke="black" points="131.873,-214.163 26.8729,-214.163 "/>
<path fill="none" stroke="black" d="M26.8729,-214.163C20.8729,-214.163 14.8729,-208.163 14.8729,-202.163"/>
<polyline fill="none" stroke="black" points="14.8729,-202.163 14.8729,-16.1633 "/>
<path fill="none" stroke="black" d="M14.8729,-16.1633C14.8729,-10.1633 20.8729,-4.16328 26.8729,-4.16328"/>
<text text-anchor="middle" x="79.3729" y="-197.563" font-family="Times Roman,serif" font-size="14.00">AssetsController</text>
<polyline fill="none" stroke="black" points="14.8729,-188.163 143.873,-188.163 "/>
<text text-anchor="start" x="22.8729" y="-171.563" font-family="Times Roman,serif" font-size="14.00">create</text>
<text text-anchor="start" x="22.8729" y="-153.563" font-family="Times Roman,serif" font-size="14.00">destroy</text>
<text text-anchor="start" x="22.8729" y="-135.563" font-family="Times Roman,serif" font-size="14.00">edit</text>
<text text-anchor="start" x="22.8729" y="-117.563" font-family="Times Roman,serif" font-size="14.00">index</text>
<text text-anchor="start" x="22.8729" y="-99.5633" font-family="Times Roman,serif" font-size="14.00">new</text>
<text text-anchor="start" x="22.8729" y="-81.5633" font-family="Times Roman,serif" font-size="14.00">show</text>
<text text-anchor="start" x="22.8729" y="-63.5633" font-family="Times Roman,serif" font-size="14.00">update</text>
<polyline fill="none" stroke="black" points="14.8729,-54.1633 143.873,-54.1633 "/>
<polyline fill="none" stroke="black" points="14.8729,-30.1633 143.873,-30.1633 "/>
<text text-anchor="start" x="22.8729" y="-13.5633" font-family="Times Roman,serif" font-size="14.00">_layout</text>
</g>
<!-- ApplicationController&#45;&gt;AssetsController -->
<g id="edge12" class="edge"><title>ApplicationController&#45;&gt;AssetsController</title>
<path fill="none" stroke="black" d="M334.043,-458.891C286.16,-393.135 202.275,-277.939 143.919,-197.802"/>
</g>
<!-- VisitorsController -->
<g id="node9" class="node"><title>VisitorsController</title>
<polyline fill="none" stroke="black" points="602.547,-527.079 714.547,-527.079 "/>
<path fill="none" stroke="black" d="M714.547,-527.079C720.547,-527.079 726.547,-533.079 726.547,-539.079"/>
<polyline fill="none" stroke="black" points="726.547,-539.079 726.547,-725.079 "/>
<path fill="none" stroke="black" d="M726.547,-725.079C726.547,-731.079 720.547,-737.079 714.547,-737.079"/>
<polyline fill="none" stroke="black" points="714.547,-737.079 602.547,-737.079 "/>
<path fill="none" stroke="black" d="M602.547,-737.079C596.547,-737.079 590.547,-731.079 590.547,-725.079"/>
<polyline fill="none" stroke="black" points="590.547,-725.079 590.547,-539.079 "/>
<path fill="none" stroke="black" d="M590.547,-539.079C590.547,-533.079 596.547,-527.079 602.547,-527.079"/>
<text text-anchor="middle" x="658.547" y="-720.479" font-family="Times Roman,serif" font-size="14.00">VisitorsController</text>
<polyline fill="none" stroke="black" points="590.547,-711.079 726.547,-711.079 "/>
<text text-anchor="start" x="598.547" y="-694.479" font-family="Times Roman,serif" font-size="14.00">create</text>
<text text-anchor="start" x="598.547" y="-676.479" font-family="Times Roman,serif" font-size="14.00">destroy</text>
<text text-anchor="start" x="598.547" y="-658.479" font-family="Times Roman,serif" font-size="14.00">edit</text>
<text text-anchor="start" x="598.547" y="-640.479" font-family="Times Roman,serif" font-size="14.00">index</text>
<text text-anchor="start" x="598.547" y="-622.479" font-family="Times Roman,serif" font-size="14.00">new</text>
<text text-anchor="start" x="598.547" y="-604.479" font-family="Times Roman,serif" font-size="14.00">show</text>
<text text-anchor="start" x="598.547" y="-586.479" font-family="Times Roman,serif" font-size="14.00">update</text>
<polyline fill="none" stroke="black" points="590.547,-577.079 726.547,-577.079 "/>
<polyline fill="none" stroke="black" points="590.547,-553.079 726.547,-553.079 "/>
<text text-anchor="start" x="598.547" y="-536.479" font-family="Times Roman,serif" font-size="14.00">_layout</text>
</g>
<!-- ApplicationController&#45;&gt;VisitorsController -->
<g id="edge14" class="edge"><title>ApplicationController&#45;&gt;VisitorsController</title>
<path fill="none" stroke="black" d="M486.075,-558.819C521.39,-573.82 559.133,-589.852 590.28,-603.081"/>
</g>
<!-- ToursController -->
<g id="node10" class="node"><title>ToursController</title>
<polyline fill="none" stroke="black" points="35.1579,-264.854 133.158,-264.854 "/>
<path fill="none" stroke="black" d="M133.158,-264.854C139.158,-264.854 145.158,-270.854 145.158,-276.854"/>
<polyline fill="none" stroke="black" points="145.158,-276.854 145.158,-498.854 "/>
<path fill="none" stroke="black" d="M145.158,-498.854C145.158,-504.854 139.158,-510.854 133.158,-510.854"/>
<polyline fill="none" stroke="black" points="133.158,-510.854 35.1579,-510.854 "/>
<path fill="none" stroke="black" d="M35.1579,-510.854C29.1579,-510.854 23.1579,-504.854 23.1579,-498.854"/>
<polyline fill="none" stroke="black" points="23.1579,-498.854 23.1579,-276.854 "/>
<path fill="none" stroke="black" d="M23.1579,-276.854C23.1579,-270.854 29.1579,-264.854 35.1579,-264.854"/>
<text text-anchor="middle" x="84.1579" y="-494.254" font-family="Times Roman,serif" font-size="14.00">ToursController</text>
<polyline fill="none" stroke="black" points="23.1579,-484.854 145.158,-484.854 "/>
<text text-anchor="start" x="31.1579" y="-468.254" font-family="Times Roman,serif" font-size="14.00">activate</text>
<text text-anchor="start" x="31.1579" y="-450.254" font-family="Times Roman,serif" font-size="14.00">create</text>
<text text-anchor="start" x="31.1579" y="-432.254" font-family="Times Roman,serif" font-size="14.00">deactivate</text>
<text text-anchor="start" x="31.1579" y="-414.254" font-family="Times Roman,serif" font-size="14.00">destroy</text>
<text text-anchor="start" x="31.1579" y="-396.254" font-family="Times Roman,serif" font-size="14.00">edit</text>
<text text-anchor="start" x="31.1579" y="-378.254" font-family="Times Roman,serif" font-size="14.00">index</text>
<text text-anchor="start" x="31.1579" y="-360.254" font-family="Times Roman,serif" font-size="14.00">new</text>
<text text-anchor="start" x="31.1579" y="-342.254" font-family="Times Roman,serif" font-size="14.00">show</text>
<text text-anchor="start" x="31.1579" y="-324.254" font-family="Times Roman,serif" font-size="14.00">update</text>
<polyline fill="none" stroke="black" points="23.1579,-314.854 145.158,-314.854 "/>
<polyline fill="none" stroke="black" points="23.1579,-290.854 145.158,-290.854 "/>
<text text-anchor="start" x="31.1579" y="-274.254" font-family="Times Roman,serif" font-size="14.00">_layout</text>
</g>
<!-- ApplicationController&#45;&gt;ToursController -->
<g id="edge16" class="edge"><title>ApplicationController&#45;&gt;ToursController</title>
<path fill="none" stroke="black" d="M256.585,-461.242C218.623,-445.085 177.856,-427.734 145.497,-413.961"/>
</g>
<!-- MediaController -->
<g id="node11" class="node"><title>MediaController</title>
<polyline fill="none" stroke="black" points="606.088,-267.385 708.088,-267.385 "/>
<path fill="none" stroke="black" d="M708.088,-267.385C714.088,-267.385 720.088,-273.385 720.088,-279.385"/>
<polyline fill="none" stroke="black" points="720.088,-279.385 720.088,-483.385 "/>
<path fill="none" stroke="black" d="M720.088,-483.385C720.088,-489.385 714.088,-495.385 708.088,-495.385"/>
<polyline fill="none" stroke="black" points="708.088,-495.385 606.088,-495.385 "/>
<path fill="none" stroke="black" d="M606.088,-495.385C600.088,-495.385 594.088,-489.385 594.088,-483.385"/>
<polyline fill="none" stroke="black" points="594.088,-483.385 594.088,-279.385 "/>
<path fill="none" stroke="black" d="M594.088,-279.385C594.088,-273.385 600.088,-267.385 606.088,-267.385"/>
<text text-anchor="middle" x="657.088" y="-478.785" font-family="Times Roman,serif" font-size="14.00">MediaController</text>
<polyline fill="none" stroke="black" points="594.088,-469.385 720.088,-469.385 "/>
<text text-anchor="start" x="602.088" y="-452.785" font-family="Times Roman,serif" font-size="14.00">create</text>
<text text-anchor="start" x="602.088" y="-434.785" font-family="Times Roman,serif" font-size="14.00">destroy</text>
<text text-anchor="start" x="602.088" y="-416.785" font-family="Times Roman,serif" font-size="14.00">edit</text>
<text text-anchor="start" x="602.088" y="-398.785" font-family="Times Roman,serif" font-size="14.00">find_media</text>
<text text-anchor="start" x="602.088" y="-380.785" font-family="Times Roman,serif" font-size="14.00">index</text>
<text text-anchor="start" x="602.088" y="-362.785" font-family="Times Roman,serif" font-size="14.00">new</text>
<text text-anchor="start" x="602.088" y="-344.785" font-family="Times Roman,serif" font-size="14.00">show</text>
<text text-anchor="start" x="602.088" y="-326.785" font-family="Times Roman,serif" font-size="14.00">update</text>
<polyline fill="none" stroke="black" points="594.088,-317.385 720.088,-317.385 "/>
<polyline fill="none" stroke="black" points="594.088,-293.385 720.088,-293.385 "/>
<text text-anchor="start" x="602.088" y="-276.785" font-family="Times Roman,serif" font-size="14.00">_layout</text>
</g>
<!-- ApplicationController&#45;&gt;MediaController -->
<g id="edge18" class="edge"><title>ApplicationController&#45;&gt;MediaController</title>
<path fill="none" stroke="black" d="M484.67,-459.027C521.914,-442.256 561.957,-424.224 594.07,-409.763"/>
</g>
<!-- VenueVisitorsController -->
<g id="node12" class="node"><title>VenueVisitorsController</title>
<polyline fill="none" stroke="black" points="583.665,-1.5 738.665,-1.5 "/>
<path fill="none" stroke="black" d="M738.665,-1.5C744.665,-1.5 750.665,-7.5 750.665,-13.5"/>
<polyline fill="none" stroke="black" points="750.665,-13.5 750.665,-199.5 "/>
<path fill="none" stroke="black" d="M750.665,-199.5C750.665,-205.5 744.665,-211.5 738.665,-211.5"/>
<polyline fill="none" stroke="black" points="738.665,-211.5 583.665,-211.5 "/>
<path fill="none" stroke="black" d="M583.665,-211.5C577.665,-211.5 571.665,-205.5 571.665,-199.5"/>
<polyline fill="none" stroke="black" points="571.665,-199.5 571.665,-13.5 "/>
<path fill="none" stroke="black" d="M571.665,-13.5C571.665,-7.5 577.665,-1.5 583.665,-1.5"/>
<text text-anchor="middle" x="661.165" y="-194.9" font-family="Times Roman,serif" font-size="14.00">VenueVisitorsController</text>
<polyline fill="none" stroke="black" points="571.665,-185.5 750.665,-185.5 "/>
<text text-anchor="start" x="579.665" y="-168.9" font-family="Times Roman,serif" font-size="14.00">create</text>
<text text-anchor="start" x="579.665" y="-150.9" font-family="Times Roman,serif" font-size="14.00">destroy</text>
<text text-anchor="start" x="579.665" y="-132.9" font-family="Times Roman,serif" font-size="14.00">edit</text>
<text text-anchor="start" x="579.665" y="-114.9" font-family="Times Roman,serif" font-size="14.00">index</text>
<text text-anchor="start" x="579.665" y="-96.9" font-family="Times Roman,serif" font-size="14.00">new</text>
<text text-anchor="start" x="579.665" y="-78.9" font-family="Times Roman,serif" font-size="14.00">show</text>
<text text-anchor="start" x="579.665" y="-60.9" font-family="Times Roman,serif" font-size="14.00">update</text>
<polyline fill="none" stroke="black" points="571.665,-51.5 750.665,-51.5 "/>
<polyline fill="none" stroke="black" points="571.665,-27.5 750.665,-27.5 "/>
<text text-anchor="start" x="579.665" y="-10.9" font-family="Times Roman,serif" font-size="14.00">_layout</text>
</g>
<!-- ApplicationController&#45;&gt;VenueVisitorsController -->
<g id="edge20" class="edge"><title>ApplicationController&#45;&gt;VenueVisitorsController</title>
<path fill="none" stroke="black" d="M408.024,-458.961C452.429,-397.133 528.325,-291.459 585.461,-211.906"/>
</g>
</g>
</svg>
