<?xml version="1.0" encoding="UTF-8" standalone="no"?>
<!DOCTYPE svg PUBLIC "-//W3C//DTD SVG 1.1//EN"
 "http://www.w3.org/Graphics/SVG/1.1/DTD/svg11.dtd">
<!-- Generated by graphviz version 2.26.3 (20100126.1600)
 -->
<!-- Title: controllers_diagram Pages: 1 -->
<svg width="1040pt" height="956pt"
 viewBox="0.00 0.00 1040.00 955.63" xmlns="http://www.w3.org/2000/svg" xmlns:xlink="http://www.w3.org/1999/xlink">
<g id="graph1" class="graph" transform="scale(1 1) rotate(0) translate(4 951.625)">
<title>controllers_diagram</title>
<polygon fill="white" stroke="white" points="-4,5 -4,-951.625 1037,-951.625 1037,5 -4,5"/>
<!-- _diagram_info -->
<g id="node1" class="node"><title>_diagram_info</title>
<text text-anchor="start" x="789" y="-78.3" font-family="Times Roman,serif" font-size="13.00">Controllers diagram</text>
<text text-anchor="start" x="789" y="-61.3" font-family="Times Roman,serif" font-size="13.00">Date: Jul 14 2013 &#45; 10:11</text>
<text text-anchor="start" x="789" y="-44.3" font-family="Times Roman,serif" font-size="13.00">Migration version: 20130709163926</text>
<text text-anchor="start" x="789" y="-27.3" font-family="Times Roman,serif" font-size="13.00">Generated by RailRoady 1.1.0</text>
<text text-anchor="start" x="789" y="-10.3" font-family="Times Roman,serif" font-size="13.00">http://railroady.prestonlee.com</text>
</g>
<!-- TourVisitorsController -->
<g id="node2" class="node"><title>TourVisitorsController</title>
<polyline fill="none" stroke="black" points="13.9426,-486.991 155.943,-486.991 "/>
<path fill="none" stroke="black" d="M155.943,-486.991C161.943,-486.991 167.943,-492.991 167.943,-498.991"/>
<polyline fill="none" stroke="black" points="167.943,-498.991 167.943,-684.991 "/>
<path fill="none" stroke="black" d="M167.943,-684.991C167.943,-690.991 161.943,-696.991 155.943,-696.991"/>
<polyline fill="none" stroke="black" points="155.943,-696.991 13.9426,-696.991 "/>
<path fill="none" stroke="black" d="M13.9426,-696.991C7.94264,-696.991 1.94264,-690.991 1.94264,-684.991"/>
<polyline fill="none" stroke="black" points="1.94264,-684.991 1.94264,-498.991 "/>
<path fill="none" stroke="black" d="M1.94264,-498.991C1.94264,-492.991 7.94264,-486.991 13.9426,-486.991"/>
<text text-anchor="middle" x="84.9426" y="-680.391" font-family="Times Roman,serif" font-size="14.00">TourVisitorsController</text>
<polyline fill="none" stroke="black" points="1.94264,-670.991 167.943,-670.991 "/>
<text text-anchor="start" x="9.94264" y="-654.391" font-family="Times Roman,serif" font-size="14.00">create</text>
<text text-anchor="start" x="9.94264" y="-636.391" font-family="Times Roman,serif" font-size="14.00">destroy</text>
<text text-anchor="start" x="9.94264" y="-618.391" font-family="Times Roman,serif" font-size="14.00">edit</text>
<text text-anchor="start" x="9.94264" y="-600.391" font-family="Times Roman,serif" font-size="14.00">index</text>
<text text-anchor="start" x="9.94264" y="-582.391" font-family="Times Roman,serif" font-size="14.00">new</text>
<text text-anchor="start" x="9.94264" y="-564.391" font-family="Times Roman,serif" font-size="14.00">show</text>
<text text-anchor="start" x="9.94264" y="-546.391" font-family="Times Roman,serif" font-size="14.00">update</text>
<polyline fill="none" stroke="black" points="1.94264,-536.991 167.943,-536.991 "/>
<polyline fill="none" stroke="black" points="1.94264,-512.991 167.943,-512.991 "/>
<text text-anchor="start" x="9.94264" y="-496.391" font-family="Times Roman,serif" font-size="14.00">_layout</text>
</g>
<!-- VenuesController -->
<g id="node3" class="node"><title>VenuesController</title>
<polyline fill="none" stroke="black" points="554.908,-732.637 665.908,-732.637 "/>
<path fill="none" stroke="black" d="M665.908,-732.637C671.908,-732.637 677.908,-738.637 677.908,-744.637"/>
<polyline fill="none" stroke="black" points="677.908,-744.637 677.908,-930.637 "/>
<path fill="none" stroke="black" d="M677.908,-930.637C677.908,-936.637 671.908,-942.637 665.908,-942.637"/>
<polyline fill="none" stroke="black" points="665.908,-942.637 554.908,-942.637 "/>
<path fill="none" stroke="black" d="M554.908,-942.637C548.908,-942.637 542.908,-936.637 542.908,-930.637"/>
<polyline fill="none" stroke="black" points="542.908,-930.637 542.908,-744.637 "/>
<path fill="none" stroke="black" d="M542.908,-744.637C542.908,-738.637 548.908,-732.637 554.908,-732.637"/>
<text text-anchor="middle" x="610.408" y="-926.037" font-family="Times Roman,serif" font-size="14.00">VenuesController</text>
<polyline fill="none" stroke="black" points="542.908,-916.637 677.908,-916.637 "/>
<text text-anchor="start" x="550.908" y="-900.037" font-family="Times Roman,serif" font-size="14.00">create</text>
<text text-anchor="start" x="550.908" y="-882.037" font-family="Times Roman,serif" font-size="14.00">destroy</text>
<text text-anchor="start" x="550.908" y="-864.037" font-family="Times Roman,serif" font-size="14.00">edit</text>
<text text-anchor="start" x="550.908" y="-846.037" font-family="Times Roman,serif" font-size="14.00">index</text>
<text text-anchor="start" x="550.908" y="-828.037" font-family="Times Roman,serif" font-size="14.00">new</text>
<text text-anchor="start" x="550.908" y="-810.037" font-family="Times Roman,serif" font-size="14.00">show</text>
<text text-anchor="start" x="550.908" y="-792.037" font-family="Times Roman,serif" font-size="14.00">update</text>
<polyline fill="none" stroke="black" points="542.908,-782.637 677.908,-782.637 "/>
<polyline fill="none" stroke="black" points="542.908,-758.637 677.908,-758.637 "/>
<text text-anchor="start" x="550.908" y="-742.037" font-family="Times Roman,serif" font-size="14.00">_layout</text>
</g>
<!-- AttractionToursController -->
<g id="node4" class="node"><title>AttractionToursController</title>
<polyline fill="none" stroke="black" points="258.431,-49.0038 425.431,-49.0038 "/>
<path fill="none" stroke="black" d="M425.431,-49.0038C431.431,-49.0038 437.431,-55.0038 437.431,-61.0038"/>
<polyline fill="none" stroke="black" points="437.431,-61.0038 437.431,-247.004 "/>
<path fill="none" stroke="black" d="M437.431,-247.004C437.431,-253.004 431.431,-259.004 425.431,-259.004"/>
<polyline fill="none" stroke="black" points="425.431,-259.004 258.431,-259.004 "/>
<path fill="none" stroke="black" d="M258.431,-259.004C252.431,-259.004 246.431,-253.004 246.431,-247.004"/>
<polyline fill="none" stroke="black" points="246.431,-247.004 246.431,-61.0038 "/>
<path fill="none" stroke="black" d="M246.431,-61.0038C246.431,-55.0038 252.431,-49.0038 258.431,-49.0038"/>
<text text-anchor="middle" x="341.931" y="-242.404" font-family="Times Roman,serif" font-size="14.00">AttractionToursController</text>
<polyline fill="none" stroke="black" points="246.431,-233.004 437.431,-233.004 "/>
<text text-anchor="start" x="254.431" y="-216.404" font-family="Times Roman,serif" font-size="14.00">create</text>
<text text-anchor="start" x="254.431" y="-198.404" font-family="Times Roman,serif" font-size="14.00">destroy</text>
<text text-anchor="start" x="254.431" y="-180.404" font-family="Times Roman,serif" font-size="14.00">edit</text>
<text text-anchor="start" x="254.431" y="-162.404" font-family="Times Roman,serif" font-size="14.00">index</text>
<text text-anchor="start" x="254.431" y="-144.404" font-family="Times Roman,serif" font-size="14.00">new</text>
<text text-anchor="start" x="254.431" y="-126.404" font-family="Times Roman,serif" font-size="14.00">show</text>
<text text-anchor="start" x="254.431" y="-108.404" font-family="Times Roman,serif" font-size="14.00">update</text>
<polyline fill="none" stroke="black" points="246.431,-99.0038 437.431,-99.0038 "/>
<polyline fill="none" stroke="black" points="246.431,-75.0038 437.431,-75.0038 "/>
<text text-anchor="start" x="254.431" y="-58.4038" font-family="Times Roman,serif" font-size="14.00">_layout</text>
</g>
<!-- TimeVisitorsController -->
<g id="node5" class="node"><title>TimeVisitorsController</title>
<polyline fill="none" stroke="black" points="274.703,-688.706 419.703,-688.706 "/>
<path fill="none" stroke="black" d="M419.703,-688.706C425.703,-688.706 431.703,-694.706 431.703,-700.706"/>
<polyline fill="none" stroke="black" points="431.703,-700.706 431.703,-886.706 "/>
<path fill="none" stroke="black" d="M431.703,-886.706C431.703,-892.706 425.703,-898.706 419.703,-898.706"/>
<polyline fill="none" stroke="black" points="419.703,-898.706 274.703,-898.706 "/>
<path fill="none" stroke="black" d="M274.703,-898.706C268.703,-898.706 262.703,-892.706 262.703,-886.706"/>
<polyline fill="none" stroke="black" points="262.703,-886.706 262.703,-700.706 "/>
<path fill="none" stroke="black" d="M262.703,-700.706C262.703,-694.706 268.703,-688.706 274.703,-688.706"/>
<text text-anchor="middle" x="347.203" y="-882.106" font-family="Times Roman,serif" font-size="14.00">TimeVisitorsController</text>
<polyline fill="none" stroke="black" points="262.703,-872.706 431.703,-872.706 "/>
<text text-anchor="start" x="270.703" y="-856.106" font-family="Times Roman,serif" font-size="14.00">create</text>
<text text-anchor="start" x="270.703" y="-838.106" font-family="Times Roman,serif" font-size="14.00">destroy</text>
<text text-anchor="start" x="270.703" y="-820.106" font-family="Times Roman,serif" font-size="14.00">edit</text>
<text text-anchor="start" x="270.703" y="-802.106" font-family="Times Roman,serif" font-size="14.00">index</text>
<text text-anchor="start" x="270.703" y="-784.106" font-family="Times Roman,serif" font-size="14.00">new</text>
<text text-anchor="start" x="270.703" y="-766.106" font-family="Times Roman,serif" font-size="14.00">show</text>
<text text-anchor="start" x="270.703" y="-748.106" font-family="Times Roman,serif" font-size="14.00">update</text>
<polyline fill="none" stroke="black" points="262.703,-738.706 431.703,-738.706 "/>
<polyline fill="none" stroke="black" points="262.703,-714.706 431.703,-714.706 "/>
<text text-anchor="start" x="270.703" y="-698.106" font-family="Times Roman,serif" font-size="14.00">_layout</text>
</g>
<!-- ApplicationController -->
<g id="node6" class="node"><title>ApplicationController</title>
<polyline fill="none" stroke="black" points="242.025,-422.949 447.025,-422.949 "/>
<path fill="none" stroke="black" d="M447.025,-422.949C453.025,-422.949 459.025,-428.949 459.025,-434.949"/>
<polyline fill="none" stroke="black" points="459.025,-434.949 459.025,-512.949 "/>
<path fill="none" stroke="black" d="M459.025,-512.949C459.025,-518.949 453.025,-524.949 447.025,-524.949"/>
<polyline fill="none" stroke="black" points="447.025,-524.949 242.025,-524.949 "/>
<path fill="none" stroke="black" d="M242.025,-524.949C236.025,-524.949 230.025,-518.949 230.025,-512.949"/>
<polyline fill="none" stroke="black" points="230.025,-512.949 230.025,-434.949 "/>
<path fill="none" stroke="black" d="M230.025,-434.949C230.025,-428.949 236.025,-422.949 242.025,-422.949"/>
<text text-anchor="middle" x="344.525" y="-508.349" font-family="Times Roman,serif" font-size="14.00">ApplicationController</text>
<polyline fill="none" stroke="black" points="230.025,-498.949 459.025,-498.949 "/>
<text text-anchor="start" x="238.025" y="-482.349" font-family="Times Roman,serif" font-size="14.00">_one_time_conditions_valid_8?</text>
<polyline fill="none" stroke="black" points="230.025,-472.949 459.025,-472.949 "/>
<polyline fill="none" stroke="black" points="230.025,-448.949 459.025,-448.949 "/>
<text text-anchor="start" x="238.025" y="-432.349" font-family="Times Roman,serif" font-size="14.00">_layout</text>
</g>
<!-- ApplicationController&#45;&gt;TourVisitorsController -->
<g id="edge2" class="edge"><title>ApplicationController&#45;&gt;TourVisitorsController</title>
<path fill="none" stroke="black" d="M232.178,-525.037C210.666,-534.82 188.502,-544.898 168.11,-554.172"/>
</g>
<!-- ApplicationController&#45;&gt;VenuesController -->
<g id="edge4" class="edge"><title>ApplicationController&#45;&gt;VenuesController</title>
<path fill="none" stroke="black" d="M382.056,-525.286C423.711,-582.264 491.782,-675.373 542.784,-745.137"/>
</g>
<!-- ApplicationController&#45;&gt;AttractionToursController -->
<g id="edge6" class="edge"><title>ApplicationController&#45;&gt;AttractionToursController</title>
<path fill="none" stroke="black" d="M344.111,-422.899C343.755,-378.97 343.23,-314.171 342.784,-259.191"/>
</g>
<!-- ApplicationController&#45;&gt;TimeVisitorsController -->
<g id="edge8" class="edge"><title>ApplicationController&#45;&gt;TimeVisitorsController</title>
<path fill="none" stroke="black" d="M344.953,-524.969C345.32,-568.873 345.862,-633.634 346.323,-688.581"/>
</g>
<!-- AttractionsController -->
<g id="node7" class="node"><title>AttractionsController</title>
<polyline fill="none" stroke="black" points="13,-736.125 150,-736.125 "/>
<path fill="none" stroke="black" d="M150,-736.125C156,-736.125 162,-742.125 162,-748.125"/>
<polyline fill="none" stroke="black" points="162,-748.125 162,-934.125 "/>
<path fill="none" stroke="black" d="M162,-934.125C162,-940.125 156,-946.125 150,-946.125"/>
<polyline fill="none" stroke="black" points="150,-946.125 13,-946.125 "/>
<path fill="none" stroke="black" d="M13,-946.125C7,-946.125 1,-940.125 1,-934.125"/>
<polyline fill="none" stroke="black" points="1,-934.125 1,-748.125 "/>
<path fill="none" stroke="black" d="M1,-748.125C1,-742.125 7,-736.125 13,-736.125"/>
<text text-anchor="middle" x="81.5" y="-929.525" font-family="Times Roman,serif" font-size="14.00">AttractionsController</text>
<polyline fill="none" stroke="black" points="1,-920.125 162,-920.125 "/>
<text text-anchor="start" x="9" y="-903.525" font-family="Times Roman,serif" font-size="14.00">create</text>
<text text-anchor="start" x="9" y="-885.525" font-family="Times Roman,serif" font-size="14.00">destroy</text>
<text text-anchor="start" x="9" y="-867.525" font-family="Times Roman,serif" font-size="14.00">edit</text>
<text text-anchor="start" x="9" y="-849.525" font-family="Times Roman,serif" font-size="14.00">index</text>
<text text-anchor="start" x="9" y="-831.525" font-family="Times Roman,serif" font-size="14.00">new</text>
<text text-anchor="start" x="9" y="-813.525" font-family="Times Roman,serif" font-size="14.00">show</text>
<text text-anchor="start" x="9" y="-795.525" font-family="Times Roman,serif" font-size="14.00">update</text>
<polyline fill="none" stroke="black" points="1,-786.125 162,-786.125 "/>
<polyline fill="none" stroke="black" points="1,-762.125 162,-762.125 "/>
<text text-anchor="start" x="9" y="-745.525" font-family="Times Roman,serif" font-size="14.00">_layout</text>
</g>
<!-- ApplicationController&#45;&gt;AttractionsController -->
<g id="edge10" class="edge"><title>ApplicationController&#45;&gt;AttractionsController</title>
<path fill="none" stroke="black" d="M307.953,-525.004C269.064,-579.291 206.46,-666.685 156.922,-735.838"/>
</g>
<!-- AssetsController -->
<g id="node8" class="node"><title>AssetsController</title>
<polyline fill="none" stroke="black" points="26.2176,-4.95879 131.218,-4.95879 "/>
<path fill="none" stroke="black" d="M131.218,-4.95879C137.218,-4.95879 143.218,-10.9588 143.218,-16.9588"/>
<polyline fill="none" stroke="black" points="143.218,-16.9588 143.218,-202.959 "/>
<path fill="none" stroke="black" d="M143.218,-202.959C143.218,-208.959 137.218,-214.959 131.218,-214.959"/>
<polyline fill="none" stroke="black" points="131.218,-214.959 26.2176,-214.959 "/>
<path fill="none" stroke="black" d="M26.2176,-214.959C20.2176,-214.959 14.2176,-208.959 14.2176,-202.959"/>
<polyline fill="none" stroke="black" points="14.2176,-202.959 14.2176,-16.9588 "/>
<path fill="none" stroke="black" d="M14.2176,-16.9588C14.2176,-10.9588 20.2176,-4.95879 26.2176,-4.95879"/>
<text text-anchor="middle" x="78.7176" y="-198.359" font-family="Times Roman,serif" font-size="14.00">AssetsController</text>
<polyline fill="none" stroke="black" points="14.2176,-188.959 143.218,-188.959 "/>
<text text-anchor="start" x="22.2176" y="-172.359" font-family="Times Roman,serif" font-size="14.00">create</text>
<text text-anchor="start" x="22.2176" y="-154.359" font-family="Times Roman,serif" font-size="14.00">destroy</text>
<text text-anchor="start" x="22.2176" y="-136.359" font-family="Times Roman,serif" font-size="14.00">edit</text>
<text text-anchor="start" x="22.2176" y="-118.359" font-family="Times Roman,serif" font-size="14.00">index</text>
<text text-anchor="start" x="22.2176" y="-100.359" font-family="Times Roman,serif" font-size="14.00">new</text>
<text text-anchor="start" x="22.2176" y="-82.3588" font-family="Times Roman,serif" font-size="14.00">show</text>
<text text-anchor="start" x="22.2176" y="-64.3588" font-family="Times Roman,serif" font-size="14.00">update</text>
<polyline fill="none" stroke="black" points="14.2176,-54.9588 143.218,-54.9588 "/>
<polyline fill="none" stroke="black" points="14.2176,-30.9588 143.218,-30.9588 "/>
<text text-anchor="start" x="22.2176" y="-14.3588" font-family="Times Roman,serif" font-size="14.00">_layout</text>
</g>
<!-- ApplicationController&#45;&gt;AssetsController -->
<g id="edge12" class="edge"><title>ApplicationController&#45;&gt;AssetsController</title>
<path fill="none" stroke="black" d="M307.005,-422.57C264.575,-364.467 194.729,-268.822 143.45,-198.602"/>
</g>
<!-- VisitorsController -->
<g id="node9" class="node"><title>VisitorsController</title>
<polyline fill="none" stroke="black" points="549.924,-478.556 661.924,-478.556 "/>
<path fill="none" stroke="black" d="M661.924,-478.556C667.924,-478.556 673.924,-484.556 673.924,-490.556"/>
<polyline fill="none" stroke="black" points="673.924,-490.556 673.924,-676.556 "/>
<path fill="none" stroke="black" d="M673.924,-676.556C673.924,-682.556 667.924,-688.556 661.924,-688.556"/>
<polyline fill="none" stroke="black" points="661.924,-688.556 549.924,-688.556 "/>
<path fill="none" stroke="black" d="M549.924,-688.556C543.924,-688.556 537.924,-682.556 537.924,-676.556"/>
<polyline fill="none" stroke="black" points="537.924,-676.556 537.924,-490.556 "/>
<path fill="none" stroke="black" d="M537.924,-490.556C537.924,-484.556 543.924,-478.556 549.924,-478.556"/>
<text text-anchor="middle" x="605.924" y="-671.956" font-family="Times Roman,serif" font-size="14.00">VisitorsController</text>
<polyline fill="none" stroke="black" points="537.924,-662.556 673.924,-662.556 "/>
<text text-anchor="start" x="545.924" y="-645.956" font-family="Times Roman,serif" font-size="14.00">create</text>
<text text-anchor="start" x="545.924" y="-627.956" font-family="Times Roman,serif" font-size="14.00">destroy</text>
<text text-anchor="start" x="545.924" y="-609.956" font-family="Times Roman,serif" font-size="14.00">edit</text>
<text text-anchor="start" x="545.924" y="-591.956" font-family="Times Roman,serif" font-size="14.00">index</text>
<text text-anchor="start" x="545.924" y="-573.956" font-family="Times Roman,serif" font-size="14.00">new</text>
<text text-anchor="start" x="545.924" y="-555.956" font-family="Times Roman,serif" font-size="14.00">show</text>
<text text-anchor="start" x="545.924" y="-537.956" font-family="Times Roman,serif" font-size="14.00">update</text>
<polyline fill="none" stroke="black" points="537.924,-528.556 673.924,-528.556 "/>
<polyline fill="none" stroke="black" points="537.924,-504.556 673.924,-504.556 "/>
<text text-anchor="start" x="545.924" y="-487.956" font-family="Times Roman,serif" font-size="14.00">_layout</text>
</g>
<!-- ApplicationController&#45;&gt;VisitorsController -->
<g id="edge14" class="edge"><title>ApplicationController&#45;&gt;VisitorsController</title>
<path fill="none" stroke="black" d="M459.179,-522.024C485.928,-533.24 513.588,-544.838 537.585,-554.9"/>
</g>
<!-- ToursController -->
<g id="node10" class="node"><title>ToursController</title>
<polyline fill="none" stroke="black" points="34.2316,-250.059 132.232,-250.059 "/>
<path fill="none" stroke="black" d="M132.232,-250.059C138.232,-250.059 144.232,-256.059 144.232,-262.059"/>
<polyline fill="none" stroke="black" points="144.232,-262.059 144.232,-466.059 "/>
<path fill="none" stroke="black" d="M144.232,-466.059C144.232,-472.059 138.232,-478.059 132.232,-478.059"/>
<polyline fill="none" stroke="black" points="132.232,-478.059 34.2316,-478.059 "/>
<path fill="none" stroke="black" d="M34.2316,-478.059C28.2316,-478.059 22.2316,-472.059 22.2316,-466.059"/>
<polyline fill="none" stroke="black" points="22.2316,-466.059 22.2316,-262.059 "/>
<path fill="none" stroke="black" d="M22.2316,-262.059C22.2316,-256.059 28.2316,-250.059 34.2316,-250.059"/>
<text text-anchor="middle" x="83.2316" y="-461.459" font-family="Times Roman,serif" font-size="14.00">ToursController</text>
<polyline fill="none" stroke="black" points="22.2316,-452.059 144.232,-452.059 "/>
<text text-anchor="start" x="30.2316" y="-435.459" font-family="Times Roman,serif" font-size="14.00">attractions</text>
<text text-anchor="start" x="30.2316" y="-417.459" font-family="Times Roman,serif" font-size="14.00">create</text>
<text text-anchor="start" x="30.2316" y="-399.459" font-family="Times Roman,serif" font-size="14.00">destroy</text>
<text text-anchor="start" x="30.2316" y="-381.459" font-family="Times Roman,serif" font-size="14.00">edit</text>
<text text-anchor="start" x="30.2316" y="-363.459" font-family="Times Roman,serif" font-size="14.00">index</text>
<text text-anchor="start" x="30.2316" y="-345.459" font-family="Times Roman,serif" font-size="14.00">new</text>
<text text-anchor="start" x="30.2316" y="-327.459" font-family="Times Roman,serif" font-size="14.00">show</text>
<text text-anchor="start" x="30.2316" y="-309.459" font-family="Times Roman,serif" font-size="14.00">update</text>
<polyline fill="none" stroke="black" points="22.2316,-300.059 144.232,-300.059 "/>
<polyline fill="none" stroke="black" points="22.2316,-276.059 144.232,-276.059 "/>
<text text-anchor="start" x="30.2316" y="-259.459" font-family="Times Roman,serif" font-size="14.00">_layout</text>
</g>
<!-- ApplicationController&#45;&gt;ToursController -->
<g id="edge16" class="edge"><title>ApplicationController&#45;&gt;ToursController</title>
<path fill="none" stroke="black" d="M229.918,-425.75C200.437,-413.351 169.849,-400.487 144.283,-389.735"/>
</g>
<!-- MediaController -->
<g id="node11" class="node"><title>MediaController</title>
<polyline fill="none" stroke="black" points="553.04,-241.664 655.04,-241.664 "/>
<path fill="none" stroke="black" d="M655.04,-241.664C661.04,-241.664 667.04,-247.664 667.04,-253.664"/>
<polyline fill="none" stroke="black" points="667.04,-253.664 667.04,-457.664 "/>
<path fill="none" stroke="black" d="M667.04,-457.664C667.04,-463.664 661.04,-469.664 655.04,-469.664"/>
<polyline fill="none" stroke="black" points="655.04,-469.664 553.04,-469.664 "/>
<path fill="none" stroke="black" d="M553.04,-469.664C547.04,-469.664 541.04,-463.664 541.04,-457.664"/>
<polyline fill="none" stroke="black" points="541.04,-457.664 541.04,-253.664 "/>
<path fill="none" stroke="black" d="M541.04,-253.664C541.04,-247.664 547.04,-241.664 553.04,-241.664"/>
<text text-anchor="middle" x="604.04" y="-453.064" font-family="Times Roman,serif" font-size="14.00">MediaController</text>
<polyline fill="none" stroke="black" points="541.04,-443.664 667.04,-443.664 "/>
<text text-anchor="start" x="549.04" y="-427.064" font-family="Times Roman,serif" font-size="14.00">create</text>
<text text-anchor="start" x="549.04" y="-409.064" font-family="Times Roman,serif" font-size="14.00">destroy</text>
<text text-anchor="start" x="549.04" y="-391.064" font-family="Times Roman,serif" font-size="14.00">edit</text>
<text text-anchor="start" x="549.04" y="-373.064" font-family="Times Roman,serif" font-size="14.00">find_media</text>
<text text-anchor="start" x="549.04" y="-355.064" font-family="Times Roman,serif" font-size="14.00">index</text>
<text text-anchor="start" x="549.04" y="-337.064" font-family="Times Roman,serif" font-size="14.00">new</text>
<text text-anchor="start" x="549.04" y="-319.064" font-family="Times Roman,serif" font-size="14.00">show</text>
<text text-anchor="start" x="549.04" y="-301.064" font-family="Times Roman,serif" font-size="14.00">update</text>
<polyline fill="none" stroke="black" points="541.04,-291.664 667.04,-291.664 "/>
<polyline fill="none" stroke="black" points="541.04,-267.664 667.04,-267.664 "/>
<text text-anchor="start" x="549.04" y="-251.064" font-family="Times Roman,serif" font-size="14.00">_layout</text>
</g>
<!-- ApplicationController&#45;&gt;MediaController -->
<g id="edge18" class="edge"><title>ApplicationController&#45;&gt;MediaController</title>
<path fill="none" stroke="black" d="M456.466,-422.927C485.411,-409.734 515.563,-395.991 541.01,-384.393"/>
</g>
<!-- VenueVisitorsController -->
<g id="node12" class="node"><title>VenueVisitorsController</title>
<polyline fill="none" stroke="black" points="530.109,-1.5 685.109,-1.5 "/>
<path fill="none" stroke="black" d="M685.109,-1.5C691.109,-1.5 697.109,-7.5 697.109,-13.5"/>
<polyline fill="none" stroke="black" points="697.109,-13.5 697.109,-199.5 "/>
<path fill="none" stroke="black" d="M697.109,-199.5C697.109,-205.5 691.109,-211.5 685.109,-211.5"/>
<polyline fill="none" stroke="black" points="685.109,-211.5 530.109,-211.5 "/>
<path fill="none" stroke="black" d="M530.109,-211.5C524.109,-211.5 518.109,-205.5 518.109,-199.5"/>
<polyline fill="none" stroke="black" points="518.109,-199.5 518.109,-13.5 "/>
<path fill="none" stroke="black" d="M518.109,-13.5C518.109,-7.5 524.109,-1.5 530.109,-1.5"/>
<text text-anchor="middle" x="607.609" y="-194.9" font-family="Times Roman,serif" font-size="14.00">VenueVisitorsController</text>
<polyline fill="none" stroke="black" points="518.109,-185.5 697.109,-185.5 "/>
<text text-anchor="start" x="526.109" y="-168.9" font-family="Times Roman,serif" font-size="14.00">create</text>
<text text-anchor="start" x="526.109" y="-150.9" font-family="Times Roman,serif" font-size="14.00">destroy</text>
<text text-anchor="start" x="526.109" y="-132.9" font-family="Times Roman,serif" font-size="14.00">edit</text>
<text text-anchor="start" x="526.109" y="-114.9" font-family="Times Roman,serif" font-size="14.00">index</text>
<text text-anchor="start" x="526.109" y="-96.9" font-family="Times Roman,serif" font-size="14.00">new</text>
<text text-anchor="start" x="526.109" y="-78.9" font-family="Times Roman,serif" font-size="14.00">show</text>
<text text-anchor="start" x="526.109" y="-60.9" font-family="Times Roman,serif" font-size="14.00">update</text>
<polyline fill="none" stroke="black" points="518.109,-51.5 697.109,-51.5 "/>
<polyline fill="none" stroke="black" points="518.109,-27.5 697.109,-27.5 "/>
<text text-anchor="start" x="526.109" y="-10.9" font-family="Times Roman,serif" font-size="14.00">_layout</text>
</g>
<!-- ApplicationController&#45;&gt;VenueVisitorsController -->
<g id="edge20" class="edge"><title>ApplicationController&#45;&gt;VenueVisitorsController</title>
<path fill="none" stroke="black" d="M381.106,-422.857C420.003,-368.529 482.621,-281.071 532.171,-211.865"/>
</g>
</g>
</svg>
