<?xml version="1.0" encoding="UTF-8" standalone="no"?>
<!DOCTYPE svg PUBLIC "-//W3C//DTD SVG 1.1//EN"
 "http://www.w3.org/Graphics/SVG/1.1/DTD/svg11.dtd">
<!-- Generated by graphviz version 2.26.3 (20100126.1600)
 -->
<!-- Title: models_diagram Pages: 1 -->
<svg width="787pt" height="324pt"
 viewBox="0.00 0.00 787.00 324.00" xmlns="http://www.w3.org/2000/svg" xmlns:xlink="http://www.w3.org/1999/xlink">
<g id="graph1" class="graph" transform="scale(1 1) rotate(0) translate(4 320)">
<title>models_diagram</title>
<polygon fill="white" stroke="white" points="-4,5 -4,-320 784,-320 784,5 -4,5"/>
<!-- _diagram_info -->
<g id="node1" class="node"><title>_diagram_info</title>
<text text-anchor="start" x="8" y="-299.8" font-family="Times Roman,serif" font-size="13.00">Models diagram</text>
<text text-anchor="start" x="8" y="-282.8" font-family="Times Roman,serif" font-size="13.00">Date: Jul 17 2013 &#45; 14:04</text>
<text text-anchor="start" x="8" y="-265.8" font-family="Times Roman,serif" font-size="13.00">Migration version: 20130717072837</text>
<text text-anchor="start" x="8" y="-248.8" font-family="Times Roman,serif" font-size="13.00">Generated by RailRoady 1.1.0</text>
<text text-anchor="start" x="8" y="-231.8" font-family="Times Roman,serif" font-size="13.00">http://railroady.prestonlee.com</text>
</g>
<!-- Medium -->
<g id="node2" class="node"><title>Medium</title>
<ellipse fill="none" stroke="black" cx="258" cy="-19" rx="50.2046" ry="18.3848"/>
<text text-anchor="middle" x="258" y="-15.4" font-family="Times Roman,serif" font-size="14.00">Medium</text>
</g>
<!-- Visitor -->
<g id="node3" class="node"><title>Visitor</title>
<ellipse fill="none" stroke="black" cx="706" cy="-269" rx="41.9273" ry="18.3848"/>
<text text-anchor="middle" x="706" y="-265.4" font-family="Times Roman,serif" font-size="14.00">Visitor</text>
</g>
<!-- VenueVisitor -->
<g id="node10" class="node"><title>VenueVisitor</title>
<ellipse fill="none" stroke="black" cx="706" cy="-167" rx="73.0388" ry="18.3848"/>
<text text-anchor="middle" x="706" y="-163.4" font-family="Times Roman,serif" font-size="14.00">VenueVisitor</text>
</g>
<!-- Visitor&#45;&gt;VenueVisitor -->
<g id="edge2" class="edge"><title>Visitor&#45;&gt;VenueVisitor</title>
<path fill="none" stroke="#2105e8" d="M706,-242.015C706,-227.835 706,-210.445 706,-195.98"/>
<ellipse fill="none" stroke="#2105e8" cx="706" cy="-246.292" rx="4" ry="4"/>
<polygon fill="#2105e8" stroke="#2105e8" points="706,-195.59 710.5,-185.59 706,-190.59 706,-185.59 706,-185.59 706,-185.59 706,-190.59 701.5,-185.59 706,-195.59 706,-195.59"/>
</g>
<!-- Asset -->
<g id="node4" class="node"><title>Asset</title>
<ellipse fill="none" stroke="black" cx="453" cy="-167" rx="38.1838" ry="18.3848"/>
<text text-anchor="middle" x="453" y="-163.4" font-family="Times Roman,serif" font-size="14.00">Asset</text>
</g>
<!-- Tour -->
<g id="node5" class="node"><title>Tour</title>
<ellipse fill="none" stroke="black" cx="365" cy="-167" rx="32.0265" ry="18.3848"/>
<text text-anchor="middle" x="365" y="-163.4" font-family="Times Roman,serif" font-size="14.00">Tour</text>
</g>
<!-- Tour&#45;&gt;Medium -->
<g id="edge8" class="edge"><title>Tour&#45;&gt;Medium</title>
<path fill="none" stroke="#ece8d2" d="M386.345,-144.545C402.393,-124.845 419.215,-95.9904 404,-74 392.788,-57.7956 347.16,-42.2445 309.857,-31.8385"/>
<ellipse fill="none" stroke="#ece8d2" cx="383.572" cy="-147.805" rx="4.00002" ry="4.00002"/>
<polygon fill="#ece8d2" stroke="#ece8d2" points="309.735,-31.8053 301.271,-24.8337 304.911,-30.4903 300.087,-29.1753 300.087,-29.1753 300.087,-29.1753 304.911,-30.4903 298.904,-33.5169 309.735,-31.8053 309.735,-31.8053"/>
</g>
<!-- AttractionTour -->
<g id="node8" class="node"><title>AttractionTour</title>
<ellipse fill="none" stroke="black" cx="313" cy="-93" rx="82.0244" ry="18.3848"/>
<text text-anchor="middle" x="313" y="-89.4" font-family="Times Roman,serif" font-size="14.00">AttractionTour</text>
</g>
<!-- Tour&#45;&gt;AttractionTour -->
<g id="edge4" class="edge"><title>Tour&#45;&gt;AttractionTour</title>
<path fill="none" stroke="#8da5eb" d="M348.145,-143.014C342.955,-135.628 337.207,-127.449 331.89,-119.882"/>
<ellipse fill="none" stroke="#8da5eb" cx="350.64" cy="-146.564" rx="4.00002" ry="4.00002"/>
<polygon fill="#8da5eb" stroke="#8da5eb" points="331.654,-119.545 329.586,-108.776 328.779,-115.454 325.904,-111.363 325.904,-111.363 325.904,-111.363 328.779,-115.454 322.222,-113.951 331.654,-119.545 331.654,-119.545"/>
</g>
<!-- TourVisitor -->
<g id="node11" class="node"><title>TourVisitor</title>
<ellipse fill="none" stroke="black" cx="562" cy="-93" rx="63.1385" ry="18.3848"/>
<text text-anchor="middle" x="562" y="-89.4" font-family="Times Roman,serif" font-size="14.00">TourVisitor</text>
</g>
<!-- Tour&#45;&gt;TourVisitor -->
<g id="edge6" class="edge"><title>Tour&#45;&gt;TourVisitor</title>
<path fill="none" stroke="#b851bf" d="M397.495,-151.601C400.356,-150.348 403.221,-149.131 406,-148 440.203,-134.082 479.403,-120.27 509.952,-109.969"/>
<ellipse fill="none" stroke="#b851bf" cx="393.637" cy="-153.328" rx="4.00002" ry="4.00002"/>
<polygon fill="#b851bf" stroke="#b851bf" points="510.068,-109.93 520.98,-111.018 514.809,-108.341 519.549,-106.752 519.549,-106.752 519.549,-106.752 514.809,-108.341 518.119,-102.485 510.068,-109.93 510.068,-109.93"/>
</g>
<!-- Progress -->
<g id="node6" class="node"><title>Progress</title>
<ellipse fill="none" stroke="black" cx="562" cy="-167" rx="53.033" ry="18.3848"/>
<text text-anchor="middle" x="562" y="-163.4" font-family="Times Roman,serif" font-size="14.00">Progress</text>
</g>
<!-- Progress&#45;&gt;TourVisitor -->
<g id="edge10" class="edge"><title>Progress&#45;&gt;TourVisitor</title>
<path fill="none" stroke="#2716ea" d="M562,-140.309C562,-134.377 562,-128.061 562,-122.04"/>
<ellipse fill="none" stroke="#2716ea" cx="562" cy="-144.327" rx="4" ry="4"/>
<polygon fill="#2716ea" stroke="#2716ea" points="562,-121.667 566.5,-111.667 562,-116.667 562,-111.667 562,-111.667 562,-111.667 562,-116.667 557.5,-111.667 562,-121.667 562,-121.667"/>
</g>
<!-- Attraction -->
<g id="node7" class="node"><title>Attraction</title>
<ellipse fill="none" stroke="black" cx="254" cy="-167" rx="60.8112" ry="18.3848"/>
<text text-anchor="middle" x="254" y="-163.4" font-family="Times Roman,serif" font-size="14.00">Attraction</text>
</g>
<!-- Attraction&#45;&gt;Medium -->
<g id="edge14" class="edge"><title>Attraction&#45;&gt;Medium</title>
<path fill="none" stroke="#790bd5" d="M235.674,-141.911C230.153,-132.929 224.815,-122.436 222,-112 217.602,-95.6939 217.174,-90.1847 222,-74 225.033,-63.8292 230.613,-53.7895 236.49,-45.1281"/>
<ellipse fill="none" stroke="#790bd5" cx="237.926" cy="-145.4" rx="4.00002" ry="4.00002"/>
<polygon fill="#790bd5" stroke="#790bd5" points="236.526,-45.0782 246.029,-39.6074 239.454,-41.0252 242.382,-36.9722 242.382,-36.9722 242.382,-36.9722 239.454,-41.0252 238.734,-34.337 236.526,-45.0782 236.526,-45.0782"/>
</g>
<!-- Attraction&#45;&gt;AttractionTour -->
<g id="edge12" class="edge"><title>Attraction&#45;&gt;AttractionTour</title>
<path fill="none" stroke="#b4928b" d="M273.695,-142.297C279.618,-134.869 286.135,-126.695 292.131,-119.175"/>
<ellipse fill="none" stroke="#b4928b" cx="271.078" cy="-145.58" rx="4.00002" ry="4.00002"/>
<polygon fill="#b4928b" stroke="#b4928b" points="292.145,-119.157 301.898,-114.144 295.262,-115.248 298.379,-111.338 298.379,-111.338 298.379,-111.338 295.262,-115.248 294.86,-108.533 292.145,-119.157 292.145,-119.157"/>
</g>
<!-- AttractionTour&#45;&gt;Medium -->
<g id="edge16" class="edge"><title>AttractionTour&#45;&gt;Medium</title>
<path fill="none" stroke="#3a8c12" d="M294.603,-68.2473C289.156,-60.9194 283.173,-52.869 277.65,-45.4388"/>
<ellipse fill="none" stroke="#3a8c12" cx="297.018" cy="-71.4975" rx="4.00002" ry="4.00002"/>
<polygon fill="#3a8c12" stroke="#3a8c12" points="277.404,-45.1077 275.051,-34.3974 274.422,-41.0947 271.439,-37.0817 271.439,-37.0817 271.439,-37.0817 274.422,-41.0947 267.827,-39.7661 277.404,-45.1077 277.404,-45.1077"/>
</g>
<!-- Venue -->
<g id="node9" class="node"><title>Venue</title>
<ellipse fill="none" stroke="black" cx="310" cy="-269" rx="41.9273" ry="18.3848"/>
<text text-anchor="middle" x="310" y="-265.4" font-family="Times Roman,serif" font-size="14.00">Venue</text>
</g>
<!-- Venue&#45;&gt;Medium -->
<g id="edge24" class="edge"><title>Venue&#45;&gt;Medium</title>
<path fill="none" stroke="#32fb8f" d="M287.469,-245.54C279.007,-237.48 269.005,-228.787 259,-222 228.402,-201.243 203.692,-217.295 184,-186 154.293,-138.788 200.346,-77.6125 232.074,-43.9516"/>
<ellipse fill="none" stroke="#32fb8f" cx="290.753" cy="-248.744" rx="4.00002" ry="4.00002"/>
<polygon fill="#32fb8f" stroke="#32fb8f" points="232.424,-43.5901 242.614,-39.5389 235.903,-39.999 239.382,-36.4078 239.382,-36.4078 239.382,-36.4078 235.903,-39.999 236.15,-33.2766 232.424,-43.5901 232.424,-43.5901"/>
</g>
<!-- Venue&#45;&gt;Asset -->
<g id="edge22" class="edge"><title>Venue&#45;&gt;Asset</title>
<path fill="none" stroke="#e5e8ce" d="M338.992,-248.32C363.431,-230.889 398.272,-206.037 422.993,-188.404"/>
<ellipse fill="none" stroke="#e5e8ce" cx="335.6" cy="-250.74" rx="4.00002" ry="4.00002"/>
<polygon fill="#e5e8ce" stroke="#e5e8ce" points="423.14,-188.299 433.895,-186.155 427.211,-185.395 431.281,-182.492 431.281,-182.492 431.281,-182.492 427.211,-185.395 428.668,-178.828 423.14,-188.299 423.14,-188.299"/>
</g>
<!-- Venue&#45;&gt;Tour -->
<g id="edge18" class="edge"><title>Venue&#45;&gt;Tour</title>
<path fill="none" stroke="#6ace3b" d="M323.846,-243.323C332.013,-228.176 342.333,-209.037 350.595,-193.714"/>
<ellipse fill="none" stroke="#6ace3b" cx="321.731" cy="-247.244" rx="4.00002" ry="4.00002"/>
<polygon fill="#6ace3b" stroke="#6ace3b" points="350.69,-193.538 359.397,-186.872 353.063,-189.137 355.436,-184.736 355.436,-184.736 355.436,-184.736 353.063,-189.137 351.476,-182.6 350.69,-193.538 350.69,-193.538"/>
</g>
<!-- Venue&#45;&gt;Attraction -->
<g id="edge20" class="edge"><title>Venue&#45;&gt;Attraction</title>
<path fill="none" stroke="#801d0b" d="M295.955,-243.419C287.751,-228.475 277.399,-209.62 269.031,-194.378"/>
<ellipse fill="none" stroke="#801d0b" cx="298.063" cy="-247.258" rx="4.00002" ry="4.00002"/>
<polygon fill="#801d0b" stroke="#801d0b" points="268.926,-194.187 268.058,-183.256 266.52,-189.804 264.114,-185.422 264.114,-185.422 264.114,-185.422 266.52,-189.804 260.169,-187.587 268.926,-194.187 268.926,-194.187"/>
</g>
<!-- VenueVisitor&#45;&gt;TourVisitor -->
<g id="edge26" class="edge"><title>VenueVisitor&#45;&gt;TourVisitor</title>
<path fill="none" stroke="#1492cb" d="M666.461,-146.681C646.696,-136.524 622.803,-124.246 602.859,-113.997"/>
<ellipse fill="none" stroke="#1492cb" cx="670.126" cy="-148.565" rx="4.00002" ry="4.00002"/>
<polygon fill="#1492cb" stroke="#1492cb" points="602.607,-113.868 595.77,-105.294 598.16,-111.582 593.713,-109.297 593.713,-109.297 593.713,-109.297 598.16,-111.582 591.656,-113.299 602.607,-113.868 602.607,-113.868"/>
</g>
<!-- TimeVisitor -->
<g id="node12" class="node"><title>TimeVisitor</title>
<ellipse fill="none" stroke="black" cx="562" cy="-19" rx="65.9683" ry="18.3848"/>
<text text-anchor="middle" x="562" y="-15.4" font-family="Times Roman,serif" font-size="14.00">TimeVisitor</text>
</g>
<!-- TourVisitor&#45;&gt;TimeVisitor -->
<g id="edge28" class="edge"><title>TourVisitor&#45;&gt;TimeVisitor</title>
<path fill="none" stroke="#c009dd" d="M562,-66.309C562,-60.3769 562,-54.0606 562,-48.0396"/>
<ellipse fill="none" stroke="#c009dd" cx="562" cy="-70.3267" rx="4" ry="4"/>
<polygon fill="#c009dd" stroke="#c009dd" points="562,-47.6674 566.5,-37.6673 562,-42.6674 562,-37.6674 562,-37.6674 562,-37.6674 562,-42.6674 557.5,-37.6674 562,-47.6674 562,-47.6674"/>
</g>
</g>
</svg>
