<?xml version="1.0" encoding="UTF-8" standalone="no"?>
<!DOCTYPE svg PUBLIC "-//W3C//DTD SVG 1.1//EN"
 "http://www.w3.org/Graphics/SVG/1.1/DTD/svg11.dtd">
<!-- Generated by graphviz version 2.26.3 (20100126.1600)
 -->
<!-- Title: models_diagram Pages: 1 -->
<svg width="947pt" height="656pt"
 viewBox="0.00 0.00 947.00 656.00" xmlns="http://www.w3.org/2000/svg" xmlns:xlink="http://www.w3.org/1999/xlink">
<g id="graph1" class="graph" transform="scale(1 1) rotate(0) translate(4 652)">
<title>models_diagram</title>
<polygon fill="white" stroke="white" points="-4,5 -4,-652 944,-652 944,5 -4,5"/>
<!-- _diagram_info -->
<g id="node1" class="node"><title>_diagram_info</title>
<text text-anchor="start" x="8" y="-624.8" font-family="Times Roman,serif" font-size="13.00">Models diagram</text>
<text text-anchor="start" x="8" y="-607.8" font-family="Times Roman,serif" font-size="13.00">Date: Jul 17 2013 &#45; 14:04</text>
<text text-anchor="start" x="8" y="-590.8" font-family="Times Roman,serif" font-size="13.00">Migration version: 20130717072837</text>
<text text-anchor="start" x="8" y="-573.8" font-family="Times Roman,serif" font-size="13.00">Generated by RailRoady 1.1.0</text>
<text text-anchor="start" x="8" y="-556.8" font-family="Times Roman,serif" font-size="13.00">http://railroady.prestonlee.com</text>
</g>
<!-- Medium -->
<g id="node2" class="node"><title>Medium</title>
<polyline fill="none" stroke="black" points="175,-10 331,-10 "/>
<path fill="none" stroke="black" d="M331,-10C337,-10 343,-16 343,-22"/>
<polyline fill="none" stroke="black" points="343,-22 343,-122 "/>
<path fill="none" stroke="black" d="M343,-122C343,-128 337,-134 331,-134"/>
<polyline fill="none" stroke="black" points="331,-134 175,-134 "/>
<path fill="none" stroke="black" d="M175,-134C169,-134 163,-128 163,-122"/>
<polyline fill="none" stroke="black" points="163,-122 163,-22 "/>
<path fill="none" stroke="black" d="M163,-22C163,-16 169,-10 175,-10"/>
<text text-anchor="middle" x="253" y="-117.4" font-family="Times Roman,serif" font-size="14.00">Medium</text>
<polyline fill="none" stroke="black" points="163,-108 343,-108 "/>
<text text-anchor="start" x="171" y="-91.4" font-family="Times Roman,serif" font-size="14.00">id :integer</text>
<text text-anchor="start" x="171" y="-73.4" font-family="Times Roman,serif" font-size="14.00">media_type :string</text>
<text text-anchor="start" x="171" y="-55.4" font-family="Times Roman,serif" font-size="14.00">content :string</text>
<text text-anchor="start" x="171" y="-37.4" font-family="Times Roman,serif" font-size="14.00">multimedia_id :integer</text>
<text text-anchor="start" x="171" y="-19.4" font-family="Times Roman,serif" font-size="14.00">multimedia_type :string</text>
</g>
<!-- Visitor -->
<g id="node3" class="node"><title>Visitor</title>
<polyline fill="none" stroke="black" points="825.5,-559 888.5,-559 "/>
<path fill="none" stroke="black" d="M888.5,-559C894.5,-559 900.5,-565 900.5,-571"/>
<polyline fill="none" stroke="black" points="900.5,-571 900.5,-617 "/>
<path fill="none" stroke="black" d="M900.5,-617C900.5,-623 894.5,-629 888.5,-629"/>
<polyline fill="none" stroke="black" points="888.5,-629 825.5,-629 "/>
<path fill="none" stroke="black" d="M825.5,-629C819.5,-629 813.5,-623 813.5,-617"/>
<polyline fill="none" stroke="black" points="813.5,-617 813.5,-571 "/>
<path fill="none" stroke="black" d="M813.5,-571C813.5,-565 819.5,-559 825.5,-559"/>
<text text-anchor="middle" x="857" y="-612.4" font-family="Times Roman,serif" font-size="14.00">Visitor</text>
<polyline fill="none" stroke="black" points="813.5,-603 900.5,-603 "/>
<text text-anchor="start" x="821.5" y="-586.4" font-family="Times Roman,serif" font-size="14.00">id :integer</text>
<text text-anchor="start" x="821.5" y="-568.4" font-family="Times Roman,serif" font-size="14.00">oid :string</text>
</g>
<!-- VenueVisitor -->
<g id="node10" class="node"><title>VenueVisitor</title>
<polyline fill="none" stroke="black" points="786.5,-370 927.5,-370 "/>
<path fill="none" stroke="black" d="M927.5,-370C933.5,-370 939.5,-376 939.5,-382"/>
<polyline fill="none" stroke="black" points="939.5,-382 939.5,-482 "/>
<path fill="none" stroke="black" d="M939.5,-482C939.5,-488 933.5,-494 927.5,-494"/>
<polyline fill="none" stroke="black" points="927.5,-494 786.5,-494 "/>
<path fill="none" stroke="black" d="M786.5,-494C780.5,-494 774.5,-488 774.5,-482"/>
<polyline fill="none" stroke="black" points="774.5,-482 774.5,-382 "/>
<path fill="none" stroke="black" d="M774.5,-382C774.5,-376 780.5,-370 786.5,-370"/>
<text text-anchor="middle" x="857" y="-477.4" font-family="Times Roman,serif" font-size="14.00">VenueVisitor</text>
<polyline fill="none" stroke="black" points="774.5,-468 939.5,-468 "/>
<text text-anchor="start" x="782.5" y="-451.4" font-family="Times Roman,serif" font-size="14.00">id :integer</text>
<text text-anchor="start" x="782.5" y="-433.4" font-family="Times Roman,serif" font-size="14.00">venue_id :integer</text>
<text text-anchor="start" x="782.5" y="-415.4" font-family="Times Roman,serif" font-size="14.00">visitor_id :integer</text>
<text text-anchor="start" x="782.5" y="-397.4" font-family="Times Roman,serif" font-size="14.00">created_at :datetime</text>
<text text-anchor="start" x="782.5" y="-379.4" font-family="Times Roman,serif" font-size="14.00">updated_at :datetime</text>
</g>
<!-- Visitor&#45;&gt;VenueVisitor -->
<g id="edge2" class="edge"><title>Visitor&#45;&gt;VenueVisitor</title>
<path fill="none" stroke="#eb0866" d="M857,-550.604C857,-536.399 857,-520.212 857,-504.46"/>
<ellipse fill="none" stroke="#eb0866" cx="857" cy="-554.848" rx="4" ry="4"/>
<polygon fill="#eb0866" stroke="#eb0866" points="857,-504.197 861.5,-494.197 857,-499.197 857,-494.197 857,-494.197 857,-494.197 857,-499.197 852.5,-494.197 857,-504.197 857,-504.197"/>
</g>
<!-- Asset -->
<g id="node4" class="node"><title>Asset</title>
<polyline fill="none" stroke="black" points="516.5,-379 629.5,-379 "/>
<path fill="none" stroke="black" d="M629.5,-379C635.5,-379 641.5,-385 641.5,-391"/>
<polyline fill="none" stroke="black" points="641.5,-391 641.5,-473 "/>
<path fill="none" stroke="black" d="M641.5,-473C641.5,-479 635.5,-485 629.5,-485"/>
<polyline fill="none" stroke="black" points="629.5,-485 516.5,-485 "/>
<path fill="none" stroke="black" d="M516.5,-485C510.5,-485 504.5,-479 504.5,-473"/>
<polyline fill="none" stroke="black" points="504.5,-473 504.5,-391 "/>
<path fill="none" stroke="black" d="M504.5,-391C504.5,-385 510.5,-379 516.5,-379"/>
<text text-anchor="middle" x="573" y="-468.4" font-family="Times Roman,serif" font-size="14.00">Asset</text>
<polyline fill="none" stroke="black" points="504.5,-459 641.5,-459 "/>
<text text-anchor="start" x="512.5" y="-442.4" font-family="Times Roman,serif" font-size="14.00">id :integer</text>
<text text-anchor="start" x="512.5" y="-424.4" font-family="Times Roman,serif" font-size="14.00">venue_id :integer</text>
<text text-anchor="start" x="512.5" y="-406.4" font-family="Times Roman,serif" font-size="14.00">assetType :string</text>
<text text-anchor="start" x="512.5" y="-388.4" font-family="Times Roman,serif" font-size="14.00">location :string</text>
</g>
<!-- Tour -->
<g id="node5" class="node"><title>Tour</title>
<polyline fill="none" stroke="black" points="359,-370 475,-370 "/>
<path fill="none" stroke="black" d="M475,-370C481,-370 487,-376 487,-382"/>
<polyline fill="none" stroke="black" points="487,-382 487,-482 "/>
<path fill="none" stroke="black" d="M487,-482C487,-488 481,-494 475,-494"/>
<polyline fill="none" stroke="black" points="475,-494 359,-494 "/>
<path fill="none" stroke="black" d="M359,-494C353,-494 347,-488 347,-482"/>
<polyline fill="none" stroke="black" points="347,-482 347,-382 "/>
<path fill="none" stroke="black" d="M347,-382C347,-376 353,-370 359,-370"/>
<text text-anchor="middle" x="417" y="-477.4" font-family="Times Roman,serif" font-size="14.00">Tour</text>
<polyline fill="none" stroke="black" points="347,-468 487,-468 "/>
<text text-anchor="start" x="355" y="-451.4" font-family="Times Roman,serif" font-size="14.00">id :integer</text>
<text text-anchor="start" x="355" y="-433.4" font-family="Times Roman,serif" font-size="14.00">title :string</text>
<text text-anchor="start" x="355" y="-415.4" font-family="Times Roman,serif" font-size="14.00">description :string</text>
<text text-anchor="start" x="355" y="-397.4" font-family="Times Roman,serif" font-size="14.00">venue_id :integer</text>
<text text-anchor="start" x="355" y="-379.4" font-family="Times Roman,serif" font-size="14.00">active :boolean</text>
</g>
<!-- Tour&#45;&gt;Medium -->
<g id="edge8" class="edge"><title>Tour&#45;&gt;Medium</title>
<path fill="none" stroke="#230b41" d="M426.711,-361.927C430.675,-308.755 428.574,-235.578 398,-180 386.681,-159.425 369.595,-141.652 351.078,-126.801"/>
<ellipse fill="none" stroke="#230b41" cx="426.381" cy="-365.966" rx="4" ry="4"/>
<polygon fill="#230b41" stroke="#230b41" points="350.982,-126.727 345.818,-117.053 347.025,-123.671 343.068,-120.615 343.068,-120.615 343.068,-120.615 347.025,-123.671 340.317,-124.177 350.982,-126.727 350.982,-126.727"/>
</g>
<!-- AttractionTour -->
<g id="node8" class="node"><title>AttractionTour</title>
<polyline fill="none" stroke="black" points="238.5,-181 377.5,-181 "/>
<path fill="none" stroke="black" d="M377.5,-181C383.5,-181 389.5,-187 389.5,-193"/>
<polyline fill="none" stroke="black" points="389.5,-193 389.5,-311 "/>
<path fill="none" stroke="black" d="M389.5,-311C389.5,-317 383.5,-323 377.5,-323"/>
<polyline fill="none" stroke="black" points="377.5,-323 238.5,-323 "/>
<path fill="none" stroke="black" d="M238.5,-323C232.5,-323 226.5,-317 226.5,-311"/>
<polyline fill="none" stroke="black" points="226.5,-311 226.5,-193 "/>
<path fill="none" stroke="black" d="M226.5,-193C226.5,-187 232.5,-181 238.5,-181"/>
<text text-anchor="middle" x="308" y="-306.4" font-family="Times Roman,serif" font-size="14.00">AttractionTour</text>
<polyline fill="none" stroke="black" points="226.5,-297 389.5,-297 "/>
<text text-anchor="start" x="234.5" y="-280.4" font-family="Times Roman,serif" font-size="14.00">id :integer</text>
<text text-anchor="start" x="234.5" y="-262.4" font-family="Times Roman,serif" font-size="14.00">attraction_id :integer</text>
<text text-anchor="start" x="234.5" y="-244.4" font-family="Times Roman,serif" font-size="14.00">tour_id :integer</text>
<text text-anchor="start" x="234.5" y="-226.4" font-family="Times Roman,serif" font-size="14.00">radius :float</text>
<text text-anchor="start" x="234.5" y="-208.4" font-family="Times Roman,serif" font-size="14.00">description :string</text>
<text text-anchor="start" x="234.5" y="-190.4" font-family="Times Roman,serif" font-size="14.00">tour_order :integer</text>
</g>
<!-- Tour&#45;&gt;AttractionTour -->
<g id="edge4" class="edge"><title>Tour&#45;&gt;AttractionTour</title>
<path fill="none" stroke="#6390f6" d="M375.02,-362.676C368.892,-352.556 362.541,-342.068 356.3,-331.762"/>
<ellipse fill="none" stroke="#6390f6" cx="377.264" cy="-366.381" rx="4.00002" ry="4.00002"/>
<polygon fill="#6390f6" stroke="#6390f6" points="356.271,-331.713 354.94,-320.828 353.681,-327.436 351.091,-323.159 351.091,-323.159 351.091,-323.159 353.681,-327.436 347.241,-325.49 356.271,-331.713 356.271,-331.713"/>
</g>
<!-- TourVisitor -->
<g id="node11" class="node"><title>TourVisitor</title>
<polyline fill="none" stroke="black" points="626,-181 790,-181 "/>
<path fill="none" stroke="black" d="M790,-181C796,-181 802,-187 802,-193"/>
<polyline fill="none" stroke="black" points="802,-193 802,-311 "/>
<path fill="none" stroke="black" d="M802,-311C802,-317 796,-323 790,-323"/>
<polyline fill="none" stroke="black" points="790,-323 626,-323 "/>
<path fill="none" stroke="black" d="M626,-323C620,-323 614,-317 614,-311"/>
<polyline fill="none" stroke="black" points="614,-311 614,-193 "/>
<path fill="none" stroke="black" d="M614,-193C614,-187 620,-181 626,-181"/>
<text text-anchor="middle" x="708" y="-306.4" font-family="Times Roman,serif" font-size="14.00">TourVisitor</text>
<polyline fill="none" stroke="black" points="614,-297 802,-297 "/>
<text text-anchor="start" x="622" y="-280.4" font-family="Times Roman,serif" font-size="14.00">id :integer</text>
<text text-anchor="start" x="622" y="-262.4" font-family="Times Roman,serif" font-size="14.00">venue_visitor_id :integer</text>
<text text-anchor="start" x="622" y="-244.4" font-family="Times Roman,serif" font-size="14.00">created_at :datetime</text>
<text text-anchor="start" x="622" y="-226.4" font-family="Times Roman,serif" font-size="14.00">updated_at :datetime</text>
<text text-anchor="start" x="622" y="-208.4" font-family="Times Roman,serif" font-size="14.00">tour_id :integer</text>
<text text-anchor="start" x="622" y="-190.4" font-family="Times Roman,serif" font-size="14.00">progress :integer</text>
</g>
<!-- Tour&#45;&gt;TourVisitor -->
<g id="edge6" class="edge"><title>Tour&#45;&gt;TourVisitor</title>
<path fill="none" stroke="#d7f68a" d="M489.36,-364.753C491.571,-363.119 493.787,-361.531 496,-360 529.602,-336.758 568.886,-315.354 604.445,-297.837"/>
<ellipse fill="none" stroke="#d7f68a" cx="485.932" cy="-367.362" rx="4.00002" ry="4.00002"/>
<polygon fill="#d7f68a" stroke="#d7f68a" points="604.894,-297.618 615.855,-297.28 609.388,-295.427 613.882,-293.235 613.882,-293.235 613.882,-293.235 609.388,-295.427 611.91,-289.19 604.894,-297.618 604.894,-297.618"/>
</g>
<!-- Progress -->
<g id="node6" class="node"><title>Progress</title>
<polyline fill="none" stroke="black" points="671,-397 745,-397 "/>
<path fill="none" stroke="black" d="M745,-397C751,-397 757,-403 757,-409"/>
<polyline fill="none" stroke="black" points="757,-409 757,-455 "/>
<path fill="none" stroke="black" d="M757,-455C757,-461 751,-467 745,-467"/>
<polyline fill="none" stroke="black" points="745,-467 671,-467 "/>
<path fill="none" stroke="black" d="M671,-467C665,-467 659,-461 659,-455"/>
<polyline fill="none" stroke="black" points="659,-455 659,-409 "/>
<path fill="none" stroke="black" d="M659,-409C659,-403 665,-397 671,-397"/>
<text text-anchor="middle" x="708" y="-450.4" font-family="Times Roman,serif" font-size="14.00">Progress</text>
<polyline fill="none" stroke="black" points="659,-441 757,-441 "/>
<text text-anchor="start" x="667" y="-424.4" font-family="Times Roman,serif" font-size="14.00">id :integer</text>
<text text-anchor="start" x="667" y="-406.4" font-family="Times Roman,serif" font-size="14.00">level :string</text>
</g>
<!-- Progress&#45;&gt;TourVisitor -->
<g id="edge10" class="edge"><title>Progress&#45;&gt;TourVisitor</title>
<path fill="none" stroke="#9bd984" d="M708,-388.717C708,-372.067 708,-352.466 708,-333.387"/>
<ellipse fill="none" stroke="#9bd984" cx="708" cy="-392.867" rx="4" ry="4"/>
<polygon fill="#9bd984" stroke="#9bd984" points="708,-333.17 712.5,-323.17 708,-328.17 708,-323.17 708,-323.17 708,-323.17 708,-328.17 703.5,-323.17 708,-333.17 708,-333.17"/>
</g>
<!-- Attraction -->
<g id="node7" class="node"><title>Attraction</title>
<polyline fill="none" stroke="black" points="201,-361 317,-361 "/>
<path fill="none" stroke="black" d="M317,-361C323,-361 329,-367 329,-373"/>
<polyline fill="none" stroke="black" points="329,-373 329,-491 "/>
<path fill="none" stroke="black" d="M329,-491C329,-497 323,-503 317,-503"/>
<polyline fill="none" stroke="black" points="317,-503 201,-503 "/>
<path fill="none" stroke="black" d="M201,-503C195,-503 189,-497 189,-491"/>
<polyline fill="none" stroke="black" points="189,-491 189,-373 "/>
<path fill="none" stroke="black" d="M189,-373C189,-367 195,-361 201,-361"/>
<text text-anchor="middle" x="259" y="-486.4" font-family="Times Roman,serif" font-size="14.00">Attraction</text>
<polyline fill="none" stroke="black" points="189,-477 329,-477 "/>
<text text-anchor="start" x="197" y="-460.4" font-family="Times Roman,serif" font-size="14.00">id :integer</text>
<text text-anchor="start" x="197" y="-442.4" font-family="Times Roman,serif" font-size="14.00">venue_id :integer</text>
<text text-anchor="start" x="197" y="-424.4" font-family="Times Roman,serif" font-size="14.00">latitude :float</text>
<text text-anchor="start" x="197" y="-406.4" font-family="Times Roman,serif" font-size="14.00">longitude :float</text>
<text text-anchor="start" x="197" y="-388.4" font-family="Times Roman,serif" font-size="14.00">title :string</text>
<text text-anchor="start" x="197" y="-370.4" font-family="Times Roman,serif" font-size="14.00">description :string</text>
</g>
<!-- Attraction&#45;&gt;Medium -->
<g id="edge14" class="edge"><title>Attraction&#45;&gt;Medium</title>
<path fill="none" stroke="#833e4e" d="M225.321,-353.034C222.319,-343.397 219.756,-333.573 218,-324 206.453,-261.05 208.012,-243.216 218,-180 219.874,-168.136 222.84,-155.801 226.27,-143.891"/>
<ellipse fill="none" stroke="#833e4e" cx="226.58" cy="-356.909" rx="4.00001" ry="4.00001"/>
<polygon fill="#833e4e" stroke="#833e4e" points="226.363,-143.582 233.556,-135.305 227.805,-138.794 229.247,-134.007 229.247,-134.007 229.247,-134.007 227.805,-138.794 224.939,-132.709 226.363,-143.582 226.363,-143.582"/>
</g>
<!-- Attraction&#45;&gt;AttractionTour -->
<g id="edge12" class="edge"><title>Attraction&#45;&gt;AttractionTour</title>
<path fill="none" stroke="#801e85" d="M280.515,-352.967C282.326,-346.314 284.158,-339.581 285.973,-332.915"/>
<ellipse fill="none" stroke="#801e85" cx="279.417" cy="-357" rx="4.00001" ry="4.00001"/>
<polygon fill="#801e85" stroke="#801e85" points="285.987,-332.862 292.956,-324.395 287.301,-328.038 288.614,-323.213 288.614,-323.213 288.614,-323.213 287.301,-328.038 284.272,-322.031 285.987,-332.862 285.987,-332.862"/>
</g>
<!-- AttractionTour&#45;&gt;Medium -->
<g id="edge16" class="edge"><title>AttractionTour&#45;&gt;Medium</title>
<path fill="none" stroke="#ac4e7e" d="M283.814,-172.845C280.877,-163.234 277.889,-153.456 274.987,-143.957"/>
<ellipse fill="none" stroke="#ac4e7e" cx="285.094" cy="-177.034" rx="4.00001" ry="4.00001"/>
<polygon fill="#ac4e7e" stroke="#ac4e7e" points="274.921,-143.742 276.302,-132.863 273.46,-138.96 271.999,-134.178 271.999,-134.178 271.999,-134.178 273.46,-138.96 267.695,-135.493 274.921,-143.742 274.921,-143.742"/>
</g>
<!-- Venue -->
<g id="node9" class="node"><title>Venue</title>
<polyline fill="none" stroke="black" points="280,-541 396,-541 "/>
<path fill="none" stroke="black" d="M396,-541C402,-541 408,-547 408,-553"/>
<polyline fill="none" stroke="black" points="408,-553 408,-635 "/>
<path fill="none" stroke="black" d="M408,-635C408,-641 402,-647 396,-647"/>
<polyline fill="none" stroke="black" points="396,-647 280,-647 "/>
<path fill="none" stroke="black" d="M280,-647C274,-647 268,-641 268,-635"/>
<polyline fill="none" stroke="black" points="268,-635 268,-553 "/>
<path fill="none" stroke="black" d="M268,-553C268,-547 274,-541 280,-541"/>
<text text-anchor="middle" x="338" y="-630.4" font-family="Times Roman,serif" font-size="14.00">Venue</text>
<polyline fill="none" stroke="black" points="268,-621 408,-621 "/>
<text text-anchor="start" x="276" y="-604.4" font-family="Times Roman,serif" font-size="14.00">id :integer</text>
<text text-anchor="start" x="276" y="-586.4" font-family="Times Roman,serif" font-size="14.00">name :string</text>
<text text-anchor="start" x="276" y="-568.4" font-family="Times Roman,serif" font-size="14.00">description :string</text>
<text text-anchor="start" x="276" y="-550.4" font-family="Times Roman,serif" font-size="14.00">active :boolean</text>
</g>
<!-- Venue&#45;&gt;Medium -->
<g id="edge24" class="edge"><title>Venue&#45;&gt;Medium</title>
<path fill="none" stroke="#b11837" d="M260.631,-540.926C260.086,-540.615 259.543,-540.306 259,-540 225.393,-521.043 200.874,-536.451 180,-504 108.689,-393.138 167.378,-234.405 212.74,-143.416"/>
<ellipse fill="none" stroke="#b11837" cx="264.299" cy="-543.076" rx="4.00002" ry="4.00002"/>
<polygon fill="#b11837" stroke="#b11837" points="212.845,-143.208 221.376,-136.317 215.103,-138.747 217.361,-134.285 217.361,-134.285 217.361,-134.285 215.103,-138.747 213.346,-132.253 212.845,-143.208 212.845,-143.208"/>
</g>
<!-- Venue&#45;&gt;Asset -->
<g id="edge22" class="edge"><title>Venue&#45;&gt;Asset</title>
<path fill="none" stroke="#fc4aed" d="M415.25,-554.74C441.694,-540.079 470.917,-522.474 496,-504 501.125,-500.225 506.28,-496.147 511.36,-491.917"/>
<ellipse fill="none" stroke="#fc4aed" cx="411.738" cy="-556.671" rx="4.00002" ry="4.00002"/>
<polygon fill="#fc4aed" stroke="#fc4aed" points="511.661,-491.66 522.189,-488.591 515.464,-488.414 519.268,-485.168 519.268,-485.168 519.268,-485.168 515.464,-488.414 516.346,-481.745 511.661,-491.66 511.661,-491.66"/>
</g>
<!-- Venue&#45;&gt;Tour -->
<g id="edge18" class="edge"><title>Venue&#45;&gt;Tour</title>
<path fill="none" stroke="#65e560" d="M367.507,-533.491C372.301,-523.661 377.305,-513.4 382.21,-503.341"/>
<ellipse fill="none" stroke="#65e560" cx="365.621" cy="-537.36" rx="4.00002" ry="4.00002"/>
<polygon fill="#65e560" stroke="#65e560" points="382.296,-503.166 390.724,-496.15 384.487,-498.671 386.679,-494.177 386.679,-494.177 386.679,-494.177 384.487,-498.671 382.634,-492.205 382.296,-503.166 382.296,-503.166"/>
</g>
<!-- Venue&#45;&gt;Attraction -->
<g id="edge20" class="edge"><title>Venue&#45;&gt;Attraction</title>
<path fill="none" stroke="#bf7afd" d="M308.488,-533.482C305.095,-526.523 301.596,-519.348 298.101,-512.182"/>
<ellipse fill="none" stroke="#bf7afd" cx="310.379" cy="-537.36" rx="4.00002" ry="4.00002"/>
<polygon fill="#bf7afd" stroke="#bf7afd" points="298.068,-512.114 297.729,-501.153 295.876,-507.62 293.685,-503.126 293.685,-503.126 293.685,-503.126 295.876,-507.62 289.64,-505.098 298.068,-512.114 298.068,-512.114"/>
</g>
<!-- VenueVisitor&#45;&gt;TourVisitor -->
<g id="edge26" class="edge"><title>VenueVisitor&#45;&gt;TourVisitor</title>
<path fill="none" stroke="#2895b5" d="M800.21,-363.395C791.438,-352.797 782.318,-341.78 773.376,-330.978"/>
<ellipse fill="none" stroke="#2895b5" cx="802.963" cy="-366.721" rx="4.00002" ry="4.00002"/>
<polygon fill="#2895b5" stroke="#2895b5" points="773.28,-330.862 770.37,-320.289 770.092,-327.011 766.904,-323.159 766.904,-323.159 766.904,-323.159 770.092,-327.011 763.437,-326.028 773.28,-330.862 773.28,-330.862"/>
</g>
<!-- TimeVisitor -->
<g id="node12" class="node"><title>TimeVisitor</title>
<polyline fill="none" stroke="black" points="633,-1 783,-1 "/>
<path fill="none" stroke="black" d="M783,-1C789,-1 795,-7 795,-13"/>
<polyline fill="none" stroke="black" points="795,-13 795,-131 "/>
<path fill="none" stroke="black" d="M795,-131C795,-137 789,-143 783,-143"/>
<polyline fill="none" stroke="black" points="783,-143 633,-143 "/>
<path fill="none" stroke="black" d="M633,-143C627,-143 621,-137 621,-131"/>
<polyline fill="none" stroke="black" points="621,-131 621,-13 "/>
<path fill="none" stroke="black" d="M621,-13C621,-7 627,-1 633,-1"/>
<text text-anchor="middle" x="708" y="-126.4" font-family="Times Roman,serif" font-size="14.00">TimeVisitor</text>
<polyline fill="none" stroke="black" points="621,-117 795,-117 "/>
<text text-anchor="start" x="629" y="-100.4" font-family="Times Roman,serif" font-size="14.00">id :integer</text>
<text text-anchor="start" x="629" y="-82.4" font-family="Times Roman,serif" font-size="14.00">tour_visitor_id :integer</text>
<text text-anchor="start" x="629" y="-64.4" font-family="Times Roman,serif" font-size="14.00">latitude :float</text>
<text text-anchor="start" x="629" y="-46.4" font-family="Times Roman,serif" font-size="14.00">longitude :float</text>
<text text-anchor="start" x="629" y="-28.4" font-family="Times Roman,serif" font-size="14.00">created_at :datetime</text>
<text text-anchor="start" x="629" y="-10.4" font-family="Times Roman,serif" font-size="14.00">updated_at :datetime</text>
</g>
<!-- TourVisitor&#45;&gt;TimeVisitor -->
<g id="edge28" class="edge"><title>TourVisitor&#45;&gt;TimeVisitor</title>
<path fill="none" stroke="#6d39a0" d="M708,-172.673C708,-166.237 708,-159.728 708,-153.279"/>
<ellipse fill="none" stroke="#6d39a0" cx="708" cy="-176.859" rx="4" ry="4"/>
<polygon fill="#6d39a0" stroke="#6d39a0" points="708,-153.213 712.5,-143.213 708,-148.213 708,-143.213 708,-143.213 708,-143.213 708,-148.213 703.5,-143.214 708,-153.213 708,-153.213"/>
</g>
</g>
</svg>
