<?xml version="1.0" encoding="UTF-8" standalone="no"?>
<!DOCTYPE svg PUBLIC "-//W3C//DTD SVG 1.1//EN"
 "http://www.w3.org/Graphics/SVG/1.1/DTD/svg11.dtd">
<!-- Generated by graphviz version 2.26.3 (20100126.1600)
 -->
<!-- Title: models_diagram Pages: 1 -->
<svg width="947pt" height="674pt"
 viewBox="0.00 0.00 947.00 674.00" xmlns="http://www.w3.org/2000/svg" xmlns:xlink="http://www.w3.org/1999/xlink">
<g id="graph1" class="graph" transform="scale(1 1) rotate(0) translate(4 670)">
<title>models_diagram</title>
<polygon fill="white" stroke="white" points="-4,5 -4,-670 944,-670 944,5 -4,5"/>
<!-- _diagram_info -->
<g id="node1" class="node"><title>_diagram_info</title>
<text text-anchor="start" x="8" y="-642.8" font-family="Times Roman,serif" font-size="13.00">Models diagram</text>
<text text-anchor="start" x="8" y="-625.8" font-family="Times Roman,serif" font-size="13.00">Date: Jul 14 2013 &#45; 10:11</text>
<text text-anchor="start" x="8" y="-608.8" font-family="Times Roman,serif" font-size="13.00">Migration version: 20130709163926</text>
<text text-anchor="start" x="8" y="-591.8" font-family="Times Roman,serif" font-size="13.00">Generated by RailRoady 1.1.0</text>
<text text-anchor="start" x="8" y="-574.8" font-family="Times Roman,serif" font-size="13.00">http://railroady.prestonlee.com</text>
</g>
<!-- Medium -->
<g id="node2" class="node"><title>Medium</title>
<polyline fill="none" stroke="black" points="175,-10 331,-10 "/>
<path fill="none" stroke="black" d="M331,-10C337,-10 343,-16 343,-22"/>
<polyline fill="none" stroke="black" points="343,-22 343,-122 "/>
<path fill="none" stroke="black" d="M343,-122C343,-128 337,-134 331,-134"/>
<polyline fill="none" stroke="black" points="331,-134 175,-134 "/>
<path fill="none" stroke="black" d="M175,-134C169,-134 163,-128 163,-122"/>
<polyline fill="none" stroke="black" points="163,-122 163,-22 "/>
<path fill="none" stroke="black" d="M163,-22C163,-16 169,-10 175,-10"/>
<text text-anchor="middle" x="253" y="-117.4" font-family="Times Roman,serif" font-size="14.00">Medium</text>
<polyline fill="none" stroke="black" points="163,-108 343,-108 "/>
<text text-anchor="start" x="171" y="-91.4" font-family="Times Roman,serif" font-size="14.00">id :integer</text>
<text text-anchor="start" x="171" y="-73.4" font-family="Times Roman,serif" font-size="14.00">media_type :string</text>
<text text-anchor="start" x="171" y="-55.4" font-family="Times Roman,serif" font-size="14.00">content :string</text>
<text text-anchor="start" x="171" y="-37.4" font-family="Times Roman,serif" font-size="14.00">multimedia_id :integer</text>
<text text-anchor="start" x="171" y="-19.4" font-family="Times Roman,serif" font-size="14.00">multimedia_type :string</text>
</g>
<!-- Visitor -->
<g id="node3" class="node"><title>Visitor</title>
<polyline fill="none" stroke="black" points="825.5,-577 888.5,-577 "/>
<path fill="none" stroke="black" d="M888.5,-577C894.5,-577 900.5,-583 900.5,-589"/>
<polyline fill="none" stroke="black" points="900.5,-589 900.5,-635 "/>
<path fill="none" stroke="black" d="M900.5,-635C900.5,-641 894.5,-647 888.5,-647"/>
<polyline fill="none" stroke="black" points="888.5,-647 825.5,-647 "/>
<path fill="none" stroke="black" d="M825.5,-647C819.5,-647 813.5,-641 813.5,-635"/>
<polyline fill="none" stroke="black" points="813.5,-635 813.5,-589 "/>
<path fill="none" stroke="black" d="M813.5,-589C813.5,-583 819.5,-577 825.5,-577"/>
<text text-anchor="middle" x="857" y="-630.4" font-family="Times Roman,serif" font-size="14.00">Visitor</text>
<polyline fill="none" stroke="black" points="813.5,-621 900.5,-621 "/>
<text text-anchor="start" x="821.5" y="-604.4" font-family="Times Roman,serif" font-size="14.00">id :integer</text>
<text text-anchor="start" x="821.5" y="-586.4" font-family="Times Roman,serif" font-size="14.00">oid :string</text>
</g>
<!-- VenueVisitor -->
<g id="node10" class="node"><title>VenueVisitor</title>
<polyline fill="none" stroke="black" points="786.5,-379 927.5,-379 "/>
<path fill="none" stroke="black" d="M927.5,-379C933.5,-379 939.5,-385 939.5,-391"/>
<polyline fill="none" stroke="black" points="939.5,-391 939.5,-491 "/>
<path fill="none" stroke="black" d="M939.5,-491C939.5,-497 933.5,-503 927.5,-503"/>
<polyline fill="none" stroke="black" points="927.5,-503 786.5,-503 "/>
<path fill="none" stroke="black" d="M786.5,-503C780.5,-503 774.5,-497 774.5,-491"/>
<polyline fill="none" stroke="black" points="774.5,-491 774.5,-391 "/>
<path fill="none" stroke="black" d="M774.5,-391C774.5,-385 780.5,-379 786.5,-379"/>
<text text-anchor="middle" x="857" y="-486.4" font-family="Times Roman,serif" font-size="14.00">VenueVisitor</text>
<polyline fill="none" stroke="black" points="774.5,-477 939.5,-477 "/>
<text text-anchor="start" x="782.5" y="-460.4" font-family="Times Roman,serif" font-size="14.00">id :integer</text>
<text text-anchor="start" x="782.5" y="-442.4" font-family="Times Roman,serif" font-size="14.00">venue_id :integer</text>
<text text-anchor="start" x="782.5" y="-424.4" font-family="Times Roman,serif" font-size="14.00">visitor_id :integer</text>
<text text-anchor="start" x="782.5" y="-406.4" font-family="Times Roman,serif" font-size="14.00">created_at :datetime</text>
<text text-anchor="start" x="782.5" y="-388.4" font-family="Times Roman,serif" font-size="14.00">updated_at :datetime</text>
</g>
<!-- Visitor&#45;&gt;VenueVisitor -->
<g id="edge2" class="edge"><title>Visitor&#45;&gt;VenueVisitor</title>
<path fill="none" stroke="#493c99" d="M857,-568.747C857,-551.932 857,-532.204 857,-513.35"/>
<ellipse fill="none" stroke="#493c99" cx="857" cy="-572.983" rx="4" ry="4"/>
<polygon fill="#493c99" stroke="#493c99" points="857,-513.291 861.5,-503.291 857,-508.291 857,-503.291 857,-503.291 857,-503.291 857,-508.291 852.5,-503.292 857,-513.291 857,-513.291"/>
</g>
<!-- Asset -->
<g id="node4" class="node"><title>Asset</title>
<polyline fill="none" stroke="black" points="516.5,-388 629.5,-388 "/>
<path fill="none" stroke="black" d="M629.5,-388C635.5,-388 641.5,-394 641.5,-400"/>
<polyline fill="none" stroke="black" points="641.5,-400 641.5,-482 "/>
<path fill="none" stroke="black" d="M641.5,-482C641.5,-488 635.5,-494 629.5,-494"/>
<polyline fill="none" stroke="black" points="629.5,-494 516.5,-494 "/>
<path fill="none" stroke="black" d="M516.5,-494C510.5,-494 504.5,-488 504.5,-482"/>
<polyline fill="none" stroke="black" points="504.5,-482 504.5,-400 "/>
<path fill="none" stroke="black" d="M504.5,-400C504.5,-394 510.5,-388 516.5,-388"/>
<text text-anchor="middle" x="573" y="-477.4" font-family="Times Roman,serif" font-size="14.00">Asset</text>
<polyline fill="none" stroke="black" points="504.5,-468 641.5,-468 "/>
<text text-anchor="start" x="512.5" y="-451.4" font-family="Times Roman,serif" font-size="14.00">id :integer</text>
<text text-anchor="start" x="512.5" y="-433.4" font-family="Times Roman,serif" font-size="14.00">venue_id :integer</text>
<text text-anchor="start" x="512.5" y="-415.4" font-family="Times Roman,serif" font-size="14.00">assetType :string</text>
<text text-anchor="start" x="512.5" y="-397.4" font-family="Times Roman,serif" font-size="14.00">location :string</text>
</g>
<!-- Tour -->
<g id="node5" class="node"><title>Tour</title>
<polyline fill="none" stroke="black" points="359,-379 475,-379 "/>
<path fill="none" stroke="black" d="M475,-379C481,-379 487,-385 487,-391"/>
<polyline fill="none" stroke="black" points="487,-391 487,-491 "/>
<path fill="none" stroke="black" d="M487,-491C487,-497 481,-503 475,-503"/>
<polyline fill="none" stroke="black" points="475,-503 359,-503 "/>
<path fill="none" stroke="black" d="M359,-503C353,-503 347,-497 347,-491"/>
<polyline fill="none" stroke="black" points="347,-491 347,-391 "/>
<path fill="none" stroke="black" d="M347,-391C347,-385 353,-379 359,-379"/>
<text text-anchor="middle" x="417" y="-486.4" font-family="Times Roman,serif" font-size="14.00">Tour</text>
<polyline fill="none" stroke="black" points="347,-477 487,-477 "/>
<text text-anchor="start" x="355" y="-460.4" font-family="Times Roman,serif" font-size="14.00">id :integer</text>
<text text-anchor="start" x="355" y="-442.4" font-family="Times Roman,serif" font-size="14.00">title :string</text>
<text text-anchor="start" x="355" y="-424.4" font-family="Times Roman,serif" font-size="14.00">description :string</text>
<text text-anchor="start" x="355" y="-406.4" font-family="Times Roman,serif" font-size="14.00">venue_id :integer</text>
<text text-anchor="start" x="355" y="-388.4" font-family="Times Roman,serif" font-size="14.00">active :boolean</text>
</g>
<!-- Tour&#45;&gt;Medium -->
<g id="edge8" class="edge"><title>Tour&#45;&gt;Medium</title>
<path fill="none" stroke="#e35222" d="M427.086,-370.944C431.608,-315.694 430.067,-238.47 398,-180 386.708,-159.41 369.632,-141.631 351.118,-126.779"/>
<ellipse fill="none" stroke="#e35222" cx="426.731" cy="-374.947" rx="4" ry="4"/>
<polygon fill="#e35222" stroke="#e35222" points="351.023,-126.705 345.859,-117.031 347.065,-123.649 343.108,-120.593 343.108,-120.593 343.108,-120.593 347.065,-123.649 340.358,-124.154 351.023,-126.705 351.023,-126.705"/>
</g>
<!-- AttractionTour -->
<g id="node8" class="node"><title>AttractionTour</title>
<polyline fill="none" stroke="black" points="238.5,-181 377.5,-181 "/>
<path fill="none" stroke="black" d="M377.5,-181C383.5,-181 389.5,-187 389.5,-193"/>
<polyline fill="none" stroke="black" points="389.5,-193 389.5,-311 "/>
<path fill="none" stroke="black" d="M389.5,-311C389.5,-317 383.5,-323 377.5,-323"/>
<polyline fill="none" stroke="black" points="377.5,-323 238.5,-323 "/>
<path fill="none" stroke="black" d="M238.5,-323C232.5,-323 226.5,-317 226.5,-311"/>
<polyline fill="none" stroke="black" points="226.5,-311 226.5,-193 "/>
<path fill="none" stroke="black" d="M226.5,-193C226.5,-187 232.5,-181 238.5,-181"/>
<text text-anchor="middle" x="308" y="-306.4" font-family="Times Roman,serif" font-size="14.00">AttractionTour</text>
<polyline fill="none" stroke="black" points="226.5,-297 389.5,-297 "/>
<text text-anchor="start" x="234.5" y="-280.4" font-family="Times Roman,serif" font-size="14.00">id :integer</text>
<text text-anchor="start" x="234.5" y="-262.4" font-family="Times Roman,serif" font-size="14.00">attraction_id :integer</text>
<text text-anchor="start" x="234.5" y="-244.4" font-family="Times Roman,serif" font-size="14.00">tour_id :integer</text>
<text text-anchor="start" x="234.5" y="-226.4" font-family="Times Roman,serif" font-size="14.00">radius :float</text>
<text text-anchor="start" x="234.5" y="-208.4" font-family="Times Roman,serif" font-size="14.00">description :string</text>
<text text-anchor="start" x="234.5" y="-190.4" font-family="Times Roman,serif" font-size="14.00">order :integer</text>
</g>
<!-- Tour&#45;&gt;AttractionTour -->
<g id="edge4" class="edge"><title>Tour&#45;&gt;AttractionTour</title>
<path fill="none" stroke="#b4d32e" d="M377.005,-371.651C369.58,-358.776 361.767,-345.23 354.176,-332.066"/>
<ellipse fill="none" stroke="#b4d32e" cx="379.16" cy="-375.388" rx="4.00002" ry="4.00002"/>
<polygon fill="#b4d32e" stroke="#b4d32e" points="353.959,-331.689 352.861,-320.779 351.461,-327.358 348.963,-323.027 348.963,-323.027 348.963,-323.027 351.461,-327.358 345.064,-325.275 353.959,-331.689 353.959,-331.689"/>
</g>
<!-- TourVisitor -->
<g id="node11" class="node"><title>TourVisitor</title>
<polyline fill="none" stroke="black" points="626,-181 790,-181 "/>
<path fill="none" stroke="black" d="M790,-181C796,-181 802,-187 802,-193"/>
<polyline fill="none" stroke="black" points="802,-193 802,-311 "/>
<path fill="none" stroke="black" d="M802,-311C802,-317 796,-323 790,-323"/>
<polyline fill="none" stroke="black" points="790,-323 626,-323 "/>
<path fill="none" stroke="black" d="M626,-323C620,-323 614,-317 614,-311"/>
<polyline fill="none" stroke="black" points="614,-311 614,-193 "/>
<path fill="none" stroke="black" d="M614,-193C614,-187 620,-181 626,-181"/>
<text text-anchor="middle" x="708" y="-306.4" font-family="Times Roman,serif" font-size="14.00">TourVisitor</text>
<polyline fill="none" stroke="black" points="614,-297 802,-297 "/>
<text text-anchor="start" x="622" y="-280.4" font-family="Times Roman,serif" font-size="14.00">id :integer</text>
<text text-anchor="start" x="622" y="-262.4" font-family="Times Roman,serif" font-size="14.00">venue_visitor_id :integer</text>
<text text-anchor="start" x="622" y="-244.4" font-family="Times Roman,serif" font-size="14.00">created_at :datetime</text>
<text text-anchor="start" x="622" y="-226.4" font-family="Times Roman,serif" font-size="14.00">updated_at :datetime</text>
<text text-anchor="start" x="622" y="-208.4" font-family="Times Roman,serif" font-size="14.00">tour_id :integer</text>
<text text-anchor="start" x="622" y="-190.4" font-family="Times Roman,serif" font-size="14.00">progress :integer</text>
</g>
<!-- Tour&#45;&gt;TourVisitor -->
<g id="edge6" class="edge"><title>Tour&#45;&gt;TourVisitor</title>
<path fill="none" stroke="#3a8f23" d="M479.494,-373.328C484.895,-368.607 490.428,-364.101 496,-360 529.274,-335.508 568.91,-313.667 604.858,-296.146"/>
<ellipse fill="none" stroke="#3a8f23" cx="476.197" cy="-376.287" rx="4.00002" ry="4.00002"/>
<polygon fill="#3a8f23" stroke="#3a8f23" points="604.902,-296.124 615.864,-295.839 609.406,-293.955 613.911,-291.785 613.911,-291.785 613.911,-291.785 609.406,-293.955 611.958,-287.731 604.902,-296.124 604.902,-296.124"/>
</g>
<!-- Progress -->
<g id="node6" class="node"><title>Progress</title>
<polyline fill="none" stroke="black" points="671,-406 745,-406 "/>
<path fill="none" stroke="black" d="M745,-406C751,-406 757,-412 757,-418"/>
<polyline fill="none" stroke="black" points="757,-418 757,-464 "/>
<path fill="none" stroke="black" d="M757,-464C757,-470 751,-476 745,-476"/>
<polyline fill="none" stroke="black" points="745,-476 671,-476 "/>
<path fill="none" stroke="black" d="M671,-476C665,-476 659,-470 659,-464"/>
<polyline fill="none" stroke="black" points="659,-464 659,-418 "/>
<path fill="none" stroke="black" d="M659,-418C659,-412 665,-406 671,-406"/>
<text text-anchor="middle" x="708" y="-459.4" font-family="Times Roman,serif" font-size="14.00">Progress</text>
<polyline fill="none" stroke="black" points="659,-450 757,-450 "/>
<text text-anchor="start" x="667" y="-433.4" font-family="Times Roman,serif" font-size="14.00">id :integer</text>
<text text-anchor="start" x="667" y="-415.4" font-family="Times Roman,serif" font-size="14.00">level :string</text>
</g>
<!-- Progress&#45;&gt;TourVisitor -->
<g id="edge10" class="edge"><title>Progress&#45;&gt;TourVisitor</title>
<path fill="none" stroke="#a7a0ac" d="M708,-397.729C708,-378.628 708,-355.527 708,-333.402"/>
<ellipse fill="none" stroke="#a7a0ac" cx="708" cy="-401.893" rx="4" ry="4"/>
<polygon fill="#a7a0ac" stroke="#a7a0ac" points="708,-333.323 712.5,-323.323 708,-328.323 708,-323.323 708,-323.323 708,-323.323 708,-328.323 703.5,-323.323 708,-333.323 708,-333.323"/>
</g>
<!-- Attraction -->
<g id="node7" class="node"><title>Attraction</title>
<polyline fill="none" stroke="black" points="201,-361 317,-361 "/>
<path fill="none" stroke="black" d="M317,-361C323,-361 329,-367 329,-373"/>
<polyline fill="none" stroke="black" points="329,-373 329,-509 "/>
<path fill="none" stroke="black" d="M329,-509C329,-515 323,-521 317,-521"/>
<polyline fill="none" stroke="black" points="317,-521 201,-521 "/>
<path fill="none" stroke="black" d="M201,-521C195,-521 189,-515 189,-509"/>
<polyline fill="none" stroke="black" points="189,-509 189,-373 "/>
<path fill="none" stroke="black" d="M189,-373C189,-367 195,-361 201,-361"/>
<text text-anchor="middle" x="259" y="-504.4" font-family="Times Roman,serif" font-size="14.00">Attraction</text>
<polyline fill="none" stroke="black" points="189,-495 329,-495 "/>
<text text-anchor="start" x="197" y="-478.4" font-family="Times Roman,serif" font-size="14.00">id :integer</text>
<text text-anchor="start" x="197" y="-460.4" font-family="Times Roman,serif" font-size="14.00">venue_id :integer</text>
<text text-anchor="start" x="197" y="-442.4" font-family="Times Roman,serif" font-size="14.00">latitude :float</text>
<text text-anchor="start" x="197" y="-424.4" font-family="Times Roman,serif" font-size="14.00">longitude :float</text>
<text text-anchor="start" x="197" y="-406.4" font-family="Times Roman,serif" font-size="14.00">radius :float</text>
<text text-anchor="start" x="197" y="-388.4" font-family="Times Roman,serif" font-size="14.00">title :string</text>
<text text-anchor="start" x="197" y="-370.4" font-family="Times Roman,serif" font-size="14.00">description :string</text>
</g>
<!-- Attraction&#45;&gt;Medium -->
<g id="edge14" class="edge"><title>Attraction&#45;&gt;Medium</title>
<path fill="none" stroke="#a701c1" d="M224.662,-353.019C221.942,-343.345 219.624,-333.543 218,-324 207.265,-260.907 208.012,-243.216 218,-180 219.874,-168.136 222.84,-155.801 226.27,-143.891"/>
<ellipse fill="none" stroke="#a701c1" cx="225.799" cy="-356.904" rx="4.00001" ry="4.00001"/>
<polygon fill="#a701c1" stroke="#a701c1" points="226.363,-143.582 233.556,-135.305 227.805,-138.794 229.247,-134.007 229.247,-134.007 229.247,-134.007 227.805,-138.794 224.939,-132.709 226.363,-143.582 226.363,-143.582"/>
</g>
<!-- Attraction&#45;&gt;AttractionTour -->
<g id="edge12" class="edge"><title>Attraction&#45;&gt;AttractionTour</title>
<path fill="none" stroke="#ea1e1c" d="M281.837,-352.915C283.526,-346.401 285.225,-339.846 286.903,-333.375"/>
<ellipse fill="none" stroke="#ea1e1c" cx="280.784" cy="-356.975" rx="4.00001" ry="4.00001"/>
<polygon fill="#ea1e1c" stroke="#ea1e1c" points="287.007,-332.973 293.873,-324.422 288.262,-328.133 289.517,-323.293 289.517,-323.293 289.517,-323.293 288.262,-328.133 285.161,-322.164 287.007,-332.973 287.007,-332.973"/>
</g>
<!-- AttractionTour&#45;&gt;Medium -->
<g id="edge16" class="edge"><title>AttractionTour&#45;&gt;Medium</title>
<path fill="none" stroke="#521f79" d="M283.814,-172.845C280.877,-163.234 277.889,-153.456 274.987,-143.957"/>
<ellipse fill="none" stroke="#521f79" cx="285.094" cy="-177.034" rx="4.00001" ry="4.00001"/>
<polygon fill="#521f79" stroke="#521f79" points="274.921,-143.742 276.302,-132.863 273.46,-138.96 271.999,-134.178 271.999,-134.178 271.999,-134.178 273.46,-138.96 267.695,-135.493 274.921,-143.742 274.921,-143.742"/>
</g>
<!-- Venue -->
<g id="node9" class="node"><title>Venue</title>
<polyline fill="none" stroke="black" points="280,-559 396,-559 "/>
<path fill="none" stroke="black" d="M396,-559C402,-559 408,-565 408,-571"/>
<polyline fill="none" stroke="black" points="408,-571 408,-653 "/>
<path fill="none" stroke="black" d="M408,-653C408,-659 402,-665 396,-665"/>
<polyline fill="none" stroke="black" points="396,-665 280,-665 "/>
<path fill="none" stroke="black" d="M280,-665C274,-665 268,-659 268,-653"/>
<polyline fill="none" stroke="black" points="268,-653 268,-571 "/>
<path fill="none" stroke="black" d="M268,-571C268,-565 274,-559 280,-559"/>
<text text-anchor="middle" x="338" y="-648.4" font-family="Times Roman,serif" font-size="14.00">Venue</text>
<polyline fill="none" stroke="black" points="268,-639 408,-639 "/>
<text text-anchor="start" x="276" y="-622.4" font-family="Times Roman,serif" font-size="14.00">id :integer</text>
<text text-anchor="start" x="276" y="-604.4" font-family="Times Roman,serif" font-size="14.00">name :string</text>
<text text-anchor="start" x="276" y="-586.4" font-family="Times Roman,serif" font-size="14.00">description :string</text>
<text text-anchor="start" x="276" y="-568.4" font-family="Times Roman,serif" font-size="14.00">active :boolean</text>
</g>
<!-- Venue&#45;&gt;Medium -->
<g id="edge24" class="edge"><title>Venue&#45;&gt;Medium</title>
<path fill="none" stroke="#2690ef" d="M260.631,-558.926C260.086,-558.615 259.543,-558.306 259,-558 225.393,-539.043 200.874,-554.451 180,-522 104.999,-405.401 166.814,-237.68 213.329,-143.388"/>
<ellipse fill="none" stroke="#2690ef" cx="264.299" cy="-561.076" rx="4.00002" ry="4.00002"/>
<polygon fill="#2690ef" stroke="#2690ef" points="213.443,-143.16 221.943,-136.231 215.681,-138.688 217.919,-134.217 217.919,-134.217 217.919,-134.217 215.681,-138.688 213.895,-132.203 213.443,-143.16 213.443,-143.16"/>
</g>
<!-- Venue&#45;&gt;Asset -->
<g id="edge22" class="edge"><title>Venue&#45;&gt;Asset</title>
<path fill="none" stroke="#250f89" d="M415.14,-573.973C441.834,-559.307 471.243,-541.383 496,-522 503.906,-515.81 511.762,-508.813 519.265,-501.588"/>
<ellipse fill="none" stroke="#250f89" cx="411.568" cy="-575.915" rx="4.00002" ry="4.00002"/>
<polygon fill="#250f89" stroke="#250f89" points="519.523,-501.333 529.801,-497.51 523.082,-497.82 526.64,-494.308 526.64,-494.308 526.64,-494.308 523.082,-497.82 523.479,-491.105 519.523,-501.333 519.523,-501.333"/>
</g>
<!-- Venue&#45;&gt;Tour -->
<g id="edge18" class="edge"><title>Venue&#45;&gt;Tour</title>
<path fill="none" stroke="#996960" d="M366.057,-551.269C371.865,-538.697 378.035,-525.342 384.001,-512.428"/>
<ellipse fill="none" stroke="#996960" cx="364.241" cy="-555.201" rx="4.00002" ry="4.00002"/>
<polygon fill="#996960" stroke="#996960" points="384.107,-512.198 392.386,-505.008 386.204,-507.659 388.301,-503.12 388.301,-503.12 388.301,-503.12 386.204,-507.659 384.216,-501.233 384.107,-512.198 384.107,-512.198"/>
</g>
<!-- Venue&#45;&gt;Attraction -->
<g id="edge20" class="edge"><title>Venue&#45;&gt;Attraction</title>
<path fill="none" stroke="#13a82a" d="M310.017,-551.43C306.829,-544.53 303.532,-537.392 300.218,-530.219"/>
<ellipse fill="none" stroke="#13a82a" cx="311.759" cy="-555.201" rx="4.00002" ry="4.00002"/>
<polygon fill="#13a82a" stroke="#13a82a" points="300.213,-530.207 300.104,-519.242 298.116,-525.668 296.019,-521.129 296.019,-521.129 296.019,-521.129 298.116,-525.668 291.934,-523.017 300.213,-530.207 300.213,-530.207"/>
</g>
<!-- VenueVisitor&#45;&gt;TourVisitor -->
<g id="edge26" class="edge"><title>VenueVisitor&#45;&gt;TourVisitor</title>
<path fill="none" stroke="#52ee27" d="M803.002,-372.506C792.397,-359.053 781.19,-344.838 770.337,-331.071"/>
<ellipse fill="none" stroke="#52ee27" cx="805.529" cy="-375.711" rx="4.00002" ry="4.00002"/>
<polygon fill="#52ee27" stroke="#52ee27" points="770.186,-330.88 767.529,-320.241 767.09,-326.953 763.995,-323.027 763.995,-323.027 763.995,-323.027 767.09,-326.953 760.461,-325.813 770.186,-330.88 770.186,-330.88"/>
</g>
<!-- TimeVisitor -->
<g id="node12" class="node"><title>TimeVisitor</title>
<polyline fill="none" stroke="black" points="633,-1 783,-1 "/>
<path fill="none" stroke="black" d="M783,-1C789,-1 795,-7 795,-13"/>
<polyline fill="none" stroke="black" points="795,-13 795,-131 "/>
<path fill="none" stroke="black" d="M795,-131C795,-137 789,-143 783,-143"/>
<polyline fill="none" stroke="black" points="783,-143 633,-143 "/>
<path fill="none" stroke="black" d="M633,-143C627,-143 621,-137 621,-131"/>
<polyline fill="none" stroke="black" points="621,-131 621,-13 "/>
<path fill="none" stroke="black" d="M621,-13C621,-7 627,-1 633,-1"/>
<text text-anchor="middle" x="708" y="-126.4" font-family="Times Roman,serif" font-size="14.00">TimeVisitor</text>
<polyline fill="none" stroke="black" points="621,-117 795,-117 "/>
<text text-anchor="start" x="629" y="-100.4" font-family="Times Roman,serif" font-size="14.00">id :integer</text>
<text text-anchor="start" x="629" y="-82.4" font-family="Times Roman,serif" font-size="14.00">tour_visitor_id :integer</text>
<text text-anchor="start" x="629" y="-64.4" font-family="Times Roman,serif" font-size="14.00">latitude :float</text>
<text text-anchor="start" x="629" y="-46.4" font-family="Times Roman,serif" font-size="14.00">longitude :float</text>
<text text-anchor="start" x="629" y="-28.4" font-family="Times Roman,serif" font-size="14.00">created_at :datetime</text>
<text text-anchor="start" x="629" y="-10.4" font-family="Times Roman,serif" font-size="14.00">updated_at :datetime</text>
</g>
<!-- TourVisitor&#45;&gt;TimeVisitor -->
<g id="edge28" class="edge"><title>TourVisitor&#45;&gt;TimeVisitor</title>
<path fill="none" stroke="#4c9a4e" d="M708,-172.673C708,-166.237 708,-159.728 708,-153.279"/>
<ellipse fill="none" stroke="#4c9a4e" cx="708" cy="-176.859" rx="4" ry="4"/>
<polygon fill="#4c9a4e" stroke="#4c9a4e" points="708,-153.213 712.5,-143.213 708,-148.213 708,-143.213 708,-143.213 708,-143.213 708,-148.213 703.5,-143.214 708,-153.213 708,-153.213"/>
</g>
</g>
</svg>
